<svg width="16" height="12" viewBox="0 0 16 12" fill="none" xmlns="http://www.w3.org/2000/svg">
<path d="M15.3833 5.99998C15.3833 6.08887 15.3693 6.17221 15.3413 6.24998C15.3138 6.32776 15.2667 6.39998 15.2 6.46665L10.8 10.8667C10.6667 11 10.5082 11.0666 10.3247 11.0666C10.1416 11.0666 9.98333 11 9.85 10.8667C9.71667 10.7333 9.65 10.5778 9.65 10.4C9.65 10.2222 9.71667 10.0667 9.85 9.93332L13.1167 6.66665L0.65 6.66665C0.461111 6.66665 0.305555 6.60265 0.183333 6.47465C0.061111 6.3471 -2.13214e-07 6.18887 -2.21471e-07 5.99998C-2.29728e-07 5.81109 0.0637776 5.65265 0.191333 5.52465C0.319333 5.3971 0.477777 5.33332 0.666666 5.33332L13.1167 5.33332L9.85 2.06665C9.71667 1.93332 9.65 1.77776 9.65 1.59998C9.65 1.4222 9.71667 1.26665 9.85 1.13332C9.98333 0.999983 10.1416 0.933316 10.3247 0.933316C10.5082 0.933316 10.6667 0.999983 10.8 1.13332L15.2 5.53332C15.2667 5.59998 15.3138 5.67221 15.3413 5.74998C15.3693 5.82776 15.3833 5.91109 15.3833 5.99998Z" fill="#3F3030"/>
</svg>
