<svg width="12" height="12" viewBox="0 0 12 12" fill="none" xmlns="http://www.w3.org/2000/svg">
<path d="M2.10001 2.3999C1.60314 2.3999 1.20001 2.80303 1.20001 3.2999C1.20001 3.58303 1.33314 3.84928 1.56001 4.0199L5.46001 6.9449C5.78064 7.1849 6.21939 7.1849 6.54001 6.9449L10.44 4.0199C10.6669 3.84928 10.8 3.58303 10.8 3.2999C10.8 2.80303 10.3969 2.3999 9.90001 2.3999H2.10001ZM1.20001 4.8749V8.3999C1.20001 9.06178 1.73814 9.5999 2.40001 9.5999H9.60001C10.2619 9.5999 10.8 9.06178 10.8 8.3999V4.8749L7.08001 7.6649C6.44064 8.1449 5.55939 8.1449 4.92001 7.6649L1.20001 4.8749Z" fill="#3F3030"/>
</svg>
