<svg width="78" height="78" viewBox="0 0 78 78" fill="none" xmlns="http://www.w3.org/2000/svg">
<path d="M0.0424717 15.3639L1.66417e-06 60.6695C-0.00118491 62.2707 0.632206 63.8068 1.76093 64.9401C2.88965 66.0735 4.42132 66.7113 6.0192 66.7134H25.3688L22.3717 75.5582H20.4318C20.1124 75.5638 19.8079 75.6949 19.584 75.9232C19.36 76.1516 19.2345 76.4589 19.2345 76.7791C19.2345 77.0993 19.36 77.4066 19.584 77.635C19.8079 77.8633 20.1124 77.9944 20.4318 78H48.024C48.3434 77.9944 48.6479 77.8633 48.8718 77.635C49.0958 77.4066 49.2212 77.0993 49.2212 76.7791C49.2212 76.4589 49.0958 76.1516 48.8718 75.9232C48.6479 75.6949 48.3434 75.5638 48.024 75.5582H46.0845L43.087 66.7134H62.434C64.0313 66.7092 65.5618 66.0707 66.6901 64.9379C67.8184 63.805 68.4526 62.2701 68.4536 60.6695C68.4506 58.0634 68.4163 27.0866 68.4144 24.4801H71.7673C73.4202 24.4801 75.0054 23.8222 76.1742 22.651C77.343 21.4798 77.9996 19.8913 77.9996 18.235V6.24472C77.9995 4.58855 77.3429 3.00024 76.1742 1.82914C75.0055 0.658054 73.4205 9.89971e-05 71.7677 0H48.3268C47.5082 -7.18155e-08 46.6975 0.16162 45.9412 0.475629C45.1849 0.789638 44.4978 1.24988 43.919 1.83007C43.3403 2.41026 42.8812 3.09902 42.5682 3.85701C42.2551 4.615 42.0942 5.42737 42.0945 6.2477V7.78537H7.6055C5.60035 7.78764 3.67799 8.58682 2.26013 10.0076C0.842284 11.4283 0.0447395 13.3547 0.0424717 15.3639ZM34.2268 62.1344C33.7847 62.133 33.353 62.0004 32.9862 61.7532C32.6194 61.5061 32.334 61.1555 32.166 60.7458C31.998 60.3361 31.955 59.8857 32.0424 59.4515C32.1298 59.0173 32.3437 58.6188 32.6571 58.3065C32.9705 57.9941 33.3693 57.7819 33.8031 57.6966C34.2368 57.6113 34.6861 57.6568 35.094 57.8273C35.502 57.9978 35.8503 58.2857 36.095 58.6546C36.3397 59.0235 36.4698 59.4568 36.4687 59.8997C36.4686 60.1941 36.4104 60.4856 36.2976 60.7575C36.1847 61.0293 36.0194 61.2761 35.811 61.4838C35.6027 61.6914 35.3555 61.8557 35.0837 61.9674C34.8118 62.079 34.5206 62.1358 34.2268 62.1344ZM68.2498 11.215V10.2798C68.2502 10.0572 68.3386 9.84376 68.4957 9.68632C68.6528 9.52889 68.8658 9.44027 69.088 9.43987C69.1984 9.43867 69.3079 9.45958 69.4102 9.50137C69.5124 9.54315 69.6053 9.60498 69.6834 9.68321C69.7615 9.76145 69.8232 9.85452 69.8649 9.95697C69.9065 10.0594 69.9274 10.1692 69.9262 10.2798V11.215H73.4714C73.6949 11.215 73.9094 11.304 74.0675 11.4624C74.2256 11.6208 74.3144 11.8357 74.3144 12.0598C74.3144 12.2838 74.2256 12.4987 74.0675 12.6571C73.9094 12.8156 73.6949 12.9046 73.4714 12.9046H72.2718C72.0052 14.3048 71.4146 15.6229 70.5476 16.753C71.3628 17.441 72.2753 18.0041 73.2553 18.4239C73.3573 18.466 73.4498 18.5283 73.5273 18.6071C73.6047 18.6858 73.6655 18.7795 73.706 18.8823C73.7464 18.9852 73.7657 19.0952 73.7627 19.2057C73.7598 19.3163 73.7345 19.425 73.6885 19.5256C73.6001 19.7248 73.4387 19.8824 73.2376 19.9657C73.0366 20.0491 72.8112 20.0519 72.6082 19.9735C71.4471 19.476 70.3689 18.8032 69.411 17.9786C67.9283 19.2908 65.8424 20.0258 65.4598 20.0258C65.2576 20.0262 65.0621 19.9534 64.9093 19.8207C64.7566 19.688 64.6568 19.5044 64.6285 19.3038C64.6002 19.1032 64.6452 18.8992 64.7552 18.7292C64.8653 18.5593 65.033 18.4349 65.2273 18.3791C66.3244 18.067 67.3462 17.5334 68.23 16.8112C67.6838 16.1616 67.2171 15.4487 66.8401 14.6879C66.7904 14.59 66.7607 14.4832 66.7528 14.3736C66.7448 14.2641 66.7587 14.1541 66.7937 14.0501C66.8288 13.946 66.8841 13.85 66.9566 13.7677C67.0291 13.6853 67.1173 13.6183 67.216 13.5705C67.3143 13.5207 67.4215 13.4909 67.5314 13.4828C67.6413 13.4747 67.7517 13.4885 67.8563 13.5234C67.9608 13.5583 68.0574 13.6137 68.1405 13.6862C68.2236 13.7588 68.2915 13.8471 68.3403 13.9461C68.6238 14.5214 68.9713 15.0627 69.376 15.5599C69.9463 14.7632 70.3517 13.86 70.5681 12.9038H64.7236C64.5002 12.9023 64.2865 12.8121 64.1294 12.653C63.9723 12.4939 63.8845 12.2788 63.8854 12.0549C63.8842 11.9442 63.9051 11.8344 63.9468 11.7319C63.9885 11.6295 64.0501 11.5363 64.1282 11.458C64.2063 11.3797 64.2991 11.3179 64.4014 11.276C64.5036 11.2341 64.6132 11.2131 64.7236 11.2142L68.2498 11.215ZM56.3842 18.334L62.4712 5.03221C62.575 4.81598 62.7593 4.64921 62.9846 4.56776C63.2098 4.48631 63.4579 4.4967 63.6756 4.59668C63.8932 4.69666 64.0631 4.87825 64.1485 5.1024C64.2339 5.32654 64.2281 5.57533 64.1324 5.79525L58.0454 19.097C57.9969 19.2085 57.9266 19.3093 57.8388 19.3933C57.7509 19.4773 57.6473 19.5429 57.5338 19.5863C57.4204 19.6297 57.2994 19.6501 57.1781 19.6461C57.0567 19.6422 56.9374 19.614 56.827 19.5633C56.7166 19.5126 56.6174 19.4404 56.5352 19.3508C56.453 19.2613 56.3894 19.1562 56.3482 19.0417C56.307 18.9273 56.2889 18.8057 56.2951 18.6842C56.3013 18.5627 56.3316 18.4436 56.3842 18.334ZM46.4965 12.5387L49.7581 4.82353C49.8229 4.64844 49.9394 4.49724 50.0919 4.39002C50.2445 4.2828 50.426 4.22463 50.6124 4.22325H50.7402C50.926 4.22434 51.1071 4.28206 51.2594 4.38875C51.4118 4.49544 51.5281 4.64604 51.5929 4.82054L54.8557 12.5372C54.9198 12.6667 54.9426 12.8128 54.9211 12.9557C54.8996 13.0986 54.8347 13.2314 54.7353 13.3361C54.6519 13.4174 54.5501 13.4773 54.4386 13.5107C54.3272 13.5441 54.2093 13.5501 54.095 13.5281C53.9807 13.5061 53.8734 13.4568 53.7822 13.3844C53.691 13.312 53.6186 13.2186 53.5711 13.1121L52.7691 11.1836H48.5828L47.7826 13.1073C47.7359 13.2146 47.664 13.3089 47.5729 13.3823C47.4819 13.4556 47.3745 13.5057 47.2598 13.5284C47.1452 13.551 47.0269 13.5454 46.9149 13.5121C46.8029 13.4788 46.7006 13.4188 46.6169 13.3372C46.5168 13.233 46.4515 13.1002 46.4299 12.9571C46.4084 12.8141 46.4316 12.6679 46.4965 12.5387ZM42.1031 27.2557C42.1031 27.4452 42.1547 27.6311 42.2524 27.7934C42.3501 27.9557 42.4902 28.0881 42.6575 28.1765C42.8248 28.2649 43.013 28.3058 43.2018 28.2948C43.3906 28.2838 43.5729 28.2214 43.7289 28.1143L48.7534 24.6631C48.9263 24.5443 49.1309 24.4806 49.3405 24.4805H65.9772V53.0879H2.47928V15.3639C2.48067 14.002 3.02119 12.6963 3.98224 11.7332C4.94329 10.7702 6.24636 10.2286 7.6055 10.2272H42.096L42.1031 27.2557Z" fill="white"/>
<path d="M17.3267 27.4614C17.6176 27.6021 17.9525 27.6212 18.2575 27.5145C18.5625 27.4078 18.8128 27.184 18.9532 26.8925L23.8529 16.7149C23.9224 16.5706 23.9629 16.4139 23.972 16.2538C23.9812 16.0938 23.9587 15.9335 23.906 15.7821C23.8533 15.6307 23.7714 15.4913 23.6649 15.3716C23.5584 15.252 23.4294 15.1546 23.2853 15.0849C23.1412 15.0152 22.9849 14.9746 22.8252 14.9655C22.6654 14.9564 22.5055 14.9788 22.3544 15.0316C22.2034 15.0845 22.0642 15.1666 21.9448 15.2733C21.8254 15.38 21.7282 15.5092 21.6586 15.6536L16.7574 25.8315C16.6878 25.976 16.6474 26.1327 16.6384 26.2929C16.6293 26.453 16.6519 26.6133 16.7048 26.7647C16.7576 26.9161 16.8398 27.0556 16.9465 27.1751C17.0532 27.2946 17.1824 27.3919 17.3267 27.4614Z" fill="white"/>
<path d="M14.5222 21.6579C14.7779 21.8559 15.1017 21.944 15.4223 21.9028C15.7429 21.8616 16.034 21.6945 16.2316 21.4382C16.4292 21.1819 16.5171 20.8575 16.476 20.5362C16.4349 20.215 16.2681 19.9233 16.0123 19.7253L14.5553 18.5979L16.0123 17.4694C16.268 17.2713 16.4348 16.9796 16.4759 16.6584C16.5169 16.3372 16.429 16.0128 16.2314 15.7566C16.0338 15.5004 15.7427 15.3333 15.4221 15.2921C15.1016 15.251 14.7779 15.3391 14.5222 15.5371L11.8167 17.6321C11.6695 17.7463 11.5503 17.8928 11.4683 18.0603C11.3863 18.2278 11.3436 18.4119 11.3436 18.5984C11.3436 18.785 11.3863 18.9691 11.4683 19.1366C11.5503 19.3041 11.6695 19.4506 11.8167 19.5647L14.5222 21.6579Z" fill="white"/>
<path d="M24.3793 26.7905C24.4771 26.9174 24.599 27.0238 24.7378 27.1035C24.8767 27.1832 25.0298 27.2347 25.1885 27.2551C25.3473 27.2755 25.5085 27.2643 25.6629 27.2223C25.8173 27.1802 25.9619 27.1081 26.0885 27.01L28.7932 24.9169C28.9404 24.8027 29.0595 24.6563 29.1415 24.4888C29.2235 24.3213 29.2661 24.1373 29.2661 23.9508C29.2661 23.7642 29.2235 23.5802 29.1415 23.4127C29.0595 23.2453 28.9404 23.0988 28.7932 22.9846L26.0885 20.8896C25.8322 20.7013 25.5126 20.6207 25.1979 20.6651C24.8832 20.7096 24.5982 20.8755 24.4038 21.1274C24.2094 21.3794 24.1209 21.6975 24.1573 22.0139C24.1936 22.3303 24.3519 22.62 24.5984 22.8211L26.0561 23.9504L24.5991 25.077C24.3434 25.2751 24.1765 25.5669 24.1353 25.8882C24.0941 26.2095 24.1819 26.534 24.3793 26.7905Z" fill="white"/>
<path d="M10.847 32H18.3899C18.7094 31.9944 19.0139 31.8634 19.2378 31.635C19.4617 31.4066 19.5872 31.0993 19.5872 30.7791C19.5872 30.459 19.4617 30.1516 19.2378 29.9233C19.0139 29.6949 18.7094 29.5638 18.3899 29.5582H10.847C10.6852 29.5554 10.5245 29.5849 10.3742 29.645C10.2239 29.705 10.087 29.7945 9.9716 29.9082C9.85618 30.0218 9.7645 30.1574 9.70193 30.3069C9.63935 30.4565 9.60712 30.617 9.60712 30.7791C9.60712 30.9413 9.63935 31.1018 9.70193 31.2514C9.7645 31.4009 9.85618 31.5364 9.9716 31.6501C10.087 31.7638 10.2239 31.8532 10.3742 31.9133C10.5245 31.9734 10.6852 32.0029 10.847 32Z" fill="white"/>
<path d="M50.3714 37.4627H57.3942C57.556 37.4655 57.7167 37.436 57.867 37.376C58.0173 37.3159 58.1542 37.2264 58.2696 37.1127C58.385 36.9991 58.4767 36.8635 58.5393 36.714C58.6019 36.5645 58.6341 36.4039 58.6341 36.2418C58.6341 36.0796 58.6019 35.9191 58.5393 35.7696C58.4767 35.62 58.385 35.4845 58.2696 35.3708C58.1542 35.2572 58.0173 35.1677 57.867 35.1076C57.7167 35.0475 57.556 35.018 57.3942 35.0209H50.3714C50.0519 35.0265 49.7474 35.1576 49.5235 35.3859C49.2996 35.6143 49.1741 35.9216 49.1741 36.2418C49.1741 36.5619 49.2996 36.8693 49.5235 37.0976C49.7474 37.326 50.0519 37.4571 50.3714 37.4627Z" fill="white"/>
<path d="M30.961 37.4627H45.9951C46.3145 37.4571 46.619 37.326 46.8429 37.0976C47.0669 36.8693 47.1923 36.5619 47.1923 36.2418C47.1923 35.9216 47.0669 35.6143 46.8429 35.3859C46.619 35.1576 46.3145 35.0265 45.9951 35.0209H30.961C30.7992 35.018 30.6385 35.0475 30.4882 35.1076C30.3379 35.1677 30.201 35.2572 30.0856 35.3708C29.9702 35.4845 29.8785 35.62 29.8159 35.7696C29.7534 35.9191 29.7211 36.0796 29.7211 36.2418C29.7211 36.4039 29.7534 36.5645 29.8159 36.714C29.8785 36.8635 29.9702 36.9991 30.0856 37.1127C30.201 37.2264 30.3379 37.3159 30.4882 37.376C30.6385 37.436 30.7992 37.4655 30.961 37.4627Z" fill="white"/>
<path d="M10.847 37.4627H25.9332C26.2526 37.4571 26.5571 37.326 26.7811 37.0976C27.005 36.8693 27.1305 36.5619 27.1305 36.2418C27.1305 35.9216 27.005 35.6143 26.7811 35.3859C26.5571 35.1576 26.2526 35.0265 25.9332 35.0209H10.847C10.5276 35.0265 10.2231 35.1576 9.99914 35.3859C9.7752 35.6143 9.64972 35.9216 9.64972 36.2418C9.64972 36.5619 9.7752 36.8693 9.99914 37.0976C10.2231 37.326 10.5276 37.4571 10.847 37.4627Z" fill="white"/>
<path d="M38.5814 41.7039C38.5814 42.0277 38.7098 42.3383 38.9383 42.5673C39.1669 42.7963 39.4768 42.925 39.8 42.925H56.1666C56.3284 42.9278 56.4892 42.8983 56.6395 42.8382C56.7898 42.7782 56.9266 42.6887 57.0421 42.575C57.1575 42.4614 57.2491 42.3258 57.3117 42.1763C57.3743 42.0267 57.4065 41.8662 57.4065 41.7041C57.4065 41.5419 57.3743 41.3814 57.3117 41.2318C57.2491 41.0823 57.1575 40.9468 57.0421 40.8331C56.9266 40.7195 56.7898 40.63 56.6395 40.5699C56.4892 40.5098 56.3284 40.4803 56.1666 40.4832H39.7996C39.4766 40.4833 39.1668 40.6119 38.9383 40.8408C38.7099 41.0697 38.5815 41.3802 38.5814 41.7039Z" fill="white"/>
<path d="M36.2504 41.7039C36.2504 41.5435 36.2189 41.3847 36.1577 41.2366C36.0964 41.0884 36.0067 40.9538 35.8935 40.8404C35.7803 40.727 35.646 40.6371 35.4982 40.5757C35.3503 40.5144 35.1919 40.4828 35.0318 40.4828H23.4427C23.1233 40.4884 22.8188 40.6195 22.5948 40.8478C22.3709 41.0762 22.2454 41.3835 22.2454 41.7037C22.2454 42.0239 22.3709 42.3312 22.5948 42.5596C22.8188 42.7879 23.1233 42.919 23.4427 42.9246H35.0288C35.1891 42.925 35.3478 42.8937 35.496 42.8325C35.6442 42.7714 35.7788 42.6815 35.8923 42.5681C36.0058 42.4548 36.0958 42.3201 36.1573 42.1718C36.2187 42.0234 36.2504 41.8645 36.2504 41.7039Z" fill="white"/>
<path d="M10.847 42.925H18.8698C19.0316 42.9278 19.1923 42.8983 19.3426 42.8382C19.4929 42.7782 19.6298 42.6887 19.7452 42.575C19.8606 42.4614 19.9523 42.3258 20.0148 42.1763C20.0774 42.0267 20.1097 41.8662 20.1097 41.7041C20.1097 41.5419 20.0774 41.3814 20.0148 41.2318C19.9523 41.0823 19.8606 40.9468 19.7452 40.8331C19.6298 40.7195 19.4929 40.63 19.3426 40.5699C19.1923 40.5098 19.0316 40.4803 18.8698 40.4832H10.847C10.6852 40.4803 10.5245 40.5098 10.3742 40.5699C10.2239 40.63 10.087 40.7195 9.9716 40.8331C9.85618 40.9468 9.7645 41.0823 9.70193 41.2318C9.63935 41.3814 9.60712 41.5419 9.60712 41.7041C9.60712 41.8662 9.63935 42.0267 9.70193 42.1763C9.7645 42.3258 9.85618 42.4614 9.9716 42.575C10.087 42.6887 10.2239 42.7782 10.3742 42.8382C10.5245 42.8983 10.6852 42.9278 10.847 42.925Z" fill="white"/>
<path d="M37.7756 45.945H31.7031C31.3837 45.9506 31.0792 46.0817 30.8553 46.3101C30.6313 46.5384 30.5059 46.8458 30.5059 47.1659C30.5059 47.4861 30.6313 47.7934 30.8553 48.0218C31.0792 48.2501 31.3837 48.3812 31.7031 48.3868H37.7756C37.9374 48.3897 38.0982 48.3602 38.2485 48.3001C38.3988 48.24 38.5356 48.1505 38.651 48.0369C38.7665 47.9232 38.8581 47.7877 38.9207 47.6381C38.9833 47.4886 39.0155 47.3281 39.0155 47.1659C39.0155 47.0038 38.9833 46.8432 38.9207 46.6937C38.8581 46.5442 38.7665 46.4086 38.651 46.295C38.5356 46.1813 38.3988 46.0918 38.2485 46.0317C38.0982 45.9717 37.9374 45.9422 37.7756 45.945Z" fill="white"/>
<path d="M10.847 48.3873H26.6932C27.0126 48.3817 27.3171 48.2506 27.5411 48.0222C27.765 47.7939 27.8905 47.4865 27.8905 47.1663C27.8905 46.8462 27.765 46.5388 27.5411 46.3105C27.3171 46.0821 27.0126 45.951 26.6932 45.9454H10.847C10.5276 45.951 10.2231 46.0821 9.99914 46.3105C9.7752 46.5388 9.64972 46.8462 9.64972 47.1663C9.64972 47.4865 9.7752 47.7939 9.99914 48.0222C10.2231 48.2506 10.5276 48.3817 10.847 48.3873Z" fill="white"/>
<path d="M57.6091 45.945H44.9523C44.7905 45.9422 44.6298 45.9717 44.4795 46.0317C44.3292 46.0918 44.1923 46.1813 44.0769 46.295C43.9615 46.4086 43.8698 46.5442 43.8072 46.6937C43.7446 46.8432 43.7124 47.0038 43.7124 47.1659C43.7124 47.3281 43.7446 47.4886 43.8072 47.6381C43.8698 47.7877 43.9615 47.9232 44.0769 48.0369C44.1923 48.1505 44.3292 48.24 44.4795 48.3001C44.6298 48.3602 44.7905 48.3897 44.9523 48.3868H57.6091C57.7709 48.3897 57.9317 48.3602 58.082 48.3001C58.2323 48.24 58.3691 48.1505 58.4845 48.0369C58.6 47.9232 58.6916 47.7877 58.7542 47.6381C58.8168 47.4886 58.849 47.3281 58.849 47.1659C58.849 47.0038 58.8168 46.8432 58.7542 46.6937C58.6916 46.5442 58.6 46.4086 58.4845 46.295C58.3691 46.1813 58.2323 46.0918 58.082 46.0317C57.9317 45.9717 57.7709 45.9422 57.6091 45.945Z" fill="white"/>
<path d="M50.6754 6.15253L49.1315 9.87666H52.2181L50.6754 6.15253Z" fill="white"/>
</svg>
