<svg width="90" height="60" viewBox="0 0 90 60" fill="none" xmlns="http://www.w3.org/2000/svg">
<path d="M40.0657 38.7813C38.9748 45.5993 36.5118 50.7981 32.6767 54.3775C28.8415 57.957 23.8218 59.7467 17.6175 59.7466C14.5494 59.7466 11.8222 59.2182 9.43591 58.1614C7.04961 57.1045 5.08092 55.6388 3.52987 53.7641C1.97873 51.8889 0.930442 49.69 0.385013 47.1674C-0.160417 44.6449 -0.126333 41.9177 0.487265 38.9858C0.819801 37.5078 1.28196 36.062 1.86837 34.6652C2.48818 33.1701 3.22331 31.7255 4.0671 30.3445L9.99874 31.4695C8.4645 33.89 7.44168 36.3955 6.93029 38.9858C6.4189 41.7131 6.5723 44.0825 7.39049 46.0941C8.20868 48.1057 9.59784 49.6653 11.558 50.773C13.5181 51.8809 15.9811 52.4349 18.947 52.4349C25.6968 52.4349 30.1797 49.6736 32.3955 44.151C31.1682 45.0033 29.7365 45.4294 28.1002 45.4294C25.9866 45.4294 24.1628 44.8584 22.6287 43.7163C21.0946 42.5743 19.9867 41.0486 19.305 39.1393C18.6232 37.2302 18.5039 35.1167 18.947 32.7985C19.5606 29.6623 20.9157 27.1482 23.0123 25.2562C25.1088 23.3642 27.6229 22.4181 30.5546 22.418C32.9409 22.418 34.9437 23.0657 36.5629 24.3611C38.1821 25.6566 39.3241 27.4633 39.9889 29.7814C40.6537 32.0995 40.7304 34.7756 40.219 37.8095L40.0657 38.7813ZM34.492 34.6394C34.7648 33.0372 34.492 31.6992 33.6739 30.6254C32.8557 29.5516 31.6966 29.0146 30.1966 29.0145C28.9545 28.9948 27.7502 29.4419 26.8218 30.2674C25.8673 31.1026 25.2537 32.219 24.981 33.6168C24.7083 35.1849 24.9981 36.5059 25.8504 37.5798C26.7027 38.6537 27.8617 39.1906 29.3276 39.1905C30.5567 39.2136 31.7537 38.7965 32.7023 38.0145C33.6474 37.2471 34.2682 36.1515 34.4408 34.9464L34.492 34.6394ZM38.1737 51.2583C38.7306 51.3716 39.2943 51.4484 39.8612 51.4884C40.5089 51.5395 41.1566 51.565 41.8044 51.565C48.861 51.565 53.054 47.9345 54.3835 40.6733L57.1964 25.9465H63.3838L60.673 40.6223C59.514 46.7925 57.3407 51.3521 54.1533 54.3009C50.9659 57.2497 46.5939 58.724 41.0373 58.7239C40.4393 58.721 39.8419 58.6869 39.2476 58.6217C38.5998 58.5535 38.0885 58.4853 37.7135 58.4172L38.1737 51.2583ZM65.7354 51.7696C66.8471 51.9857 67.9778 52.0885 69.1103 52.0764C72.3488 52.0764 75.0334 51.3861 77.164 50.0054C79.2946 48.6247 80.8712 46.7241 81.8939 44.3036C80.6338 45.2239 79.1081 45.7087 77.5479 45.6847C75.4684 45.6847 73.6531 45.0966 72.102 43.9206C70.551 42.7445 69.4344 41.1848 68.7523 39.2415C68.0705 37.2987 67.9512 35.151 68.3944 32.7985C69.0079 29.6623 70.363 27.1482 72.4596 25.2562C74.5562 23.3642 77.0703 22.4181 80.0019 22.418C82.3882 22.418 84.391 23.0657 86.0102 24.3611C87.6295 25.6566 88.7715 27.4634 89.4364 29.7816C90.1012 32.0998 90.1779 34.7758 89.6665 37.8098L89.513 38.7813C88.4563 45.2925 86.0785 50.2356 82.3795 53.6104C78.6805 56.9853 73.9165 58.6728 68.0876 58.6728C67.5411 58.6796 66.9948 58.654 66.4513 58.5961C66.0422 58.545 65.6672 58.4853 65.3263 58.4172L65.7354 51.7696ZM74.4283 33.6168C74.1555 35.1849 74.4453 36.5059 75.2976 37.5798C76.1499 38.6537 77.326 39.1906 78.8259 39.1905C80.0386 39.2078 81.2176 38.7907 82.1496 38.0145C83.0975 37.2419 83.7334 36.1519 83.9393 34.9464L83.99 34.6397C84.2628 33.0374 83.9815 31.6994 83.1463 30.6256C82.311 29.5518 81.1436 29.0148 79.644 29.0145C78.4018 28.9947 77.1974 29.4418 76.269 30.2673C75.3146 31.1025 74.701 32.219 74.4283 33.6168Z" fill="#3F3030"/>
<path d="M19.5002 21.3831C19.5467 21.2098 19.5791 21.0983 19.5794 21.0975C19.7491 20.5077 19.9614 19.9311 20.2147 19.3721C20.4883 18.7505 20.7953 18.1441 21.1342 17.5556C21.564 16.8083 22.0425 16.09 22.5666 15.4054C23.8846 13.681 25.488 12.1948 27.3074 11.0111C28.4039 10.3006 29.5683 9.70048 30.7833 9.21972C32.1807 8.67044 33.6295 8.26235 35.1081 8.00153C38.0138 7.48068 40.6014 6.73621 42.7989 5.78828C44.5568 5.02994 46.0702 4.14063 47.2973 3.14457C48.1016 2.50949 48.8119 1.76363 49.4069 0.929255C49.6164 0.640351 49.7925 0.328612 49.9317 1.89641e-05C49.9316 0.00232154 49.9313 0.00461177 49.9308 0.00683966C49.8952 0.199671 49.6978 1.23664 49.2988 2.72203C48.7385 4.82044 48.0229 6.87423 47.1577 8.86637C45.9903 11.5158 44.6401 13.715 43.1449 15.4013C42.3206 16.3477 41.3712 17.1774 40.3231 17.8677C39.2786 18.5502 38.117 19.034 36.8968 19.2948C35.8495 19.5144 34.7901 19.6719 33.7242 19.7667C31.6808 19.9338 29.6252 19.873 27.5954 19.5854C27.2602 19.5424 26.9401 19.4985 26.6303 19.456C26.0091 19.3704 25.4223 19.29 24.8929 19.2442C25.2741 18.7447 25.8177 18.3039 26.5554 17.8962C27.1141 17.5945 27.6961 17.3384 28.296 17.1303C29.0799 16.8571 29.8782 16.6272 30.6874 16.4414C33.726 15.7273 36.4058 14.6905 38.6522 13.3597C39.5152 12.8519 40.3372 12.2776 41.1109 11.642C41.6881 11.1675 42.2292 10.6506 42.7297 10.0957L42.7221 10.0837C41.781 10.8609 40.3946 11.6408 38.6011 12.4019C36.2861 13.3842 33.3026 14.3271 29.7336 15.2063C28.1422 15.5862 26.5934 16.1259 25.1106 16.8173C23.9358 17.3676 22.8319 18.058 21.8228 18.8734C20.9339 19.5961 20.1519 20.441 19.5002 21.3831Z" fill="#AF9585"/>
</svg>
