<svg width="23" height="20" viewBox="0 0 23 20" fill="none" xmlns="http://www.w3.org/2000/svg">
<path fill-rule="evenodd" clip-rule="evenodd" d="M11.7961 0.00509393C9.90368 -0.0584096 8.03899 0.473173 6.46453 1.52501C4.69426 2.70854 3.39779 4.47816 2.80297 6.52286C2.6419 6.5032 2.44902 6.51188 2.21999 6.57665C1.36489 6.81956 0.722047 7.51995 0.432869 8.13705C0.057517 8.94126 -0.100663 10.0051 0.0661923 11.1029C0.231891 12.1974 0.694286 13.0996 1.27264 13.6598C1.85273 14.2202 2.50772 14.4024 3.15837 14.2656C4.12711 14.0588 4.60744 13.9041 4.47181 13.0019L3.81538 8.62663C3.88205 7.43583 4.22466 6.27684 4.81616 5.24119C5.40766 4.20554 6.23184 3.32159 7.22362 2.65916C8.56022 1.76498 10.1436 1.3124 11.7508 1.3651C13.3581 1.41781 14.9084 1.97315 16.1835 2.95297C17.0639 3.62797 17.7878 4.48541 18.3057 5.46649C18.8236 6.44756 19.1231 7.52905 19.1837 8.63675L18.7245 11.6971C18.2263 13.063 17.351 14.2595 16.2002 15.1481C15.0495 16.0366 13.6704 16.5807 12.2229 16.7172H10.2664C10.1466 16.717 10.028 16.7403 9.91736 16.786C9.80669 16.8317 9.70613 16.8988 9.62144 16.9834C9.53676 17.068 9.46961 17.1686 9.42387 17.2792C9.37812 17.3898 9.35467 17.5084 9.35486 17.6281V18.1088C9.35463 18.2285 9.37806 18.3471 9.42379 18.4578C9.46951 18.5685 9.53665 18.669 9.62134 18.7537C9.70603 18.8383 9.8066 18.9055 9.91729 18.9511C10.028 18.9968 10.1466 19.0202 10.2664 19.02H12.7333C12.8529 19.0201 12.9714 18.9967 13.0819 18.951C13.1924 18.9053 13.2928 18.8381 13.3773 18.7535C13.4619 18.6689 13.5288 18.5684 13.5744 18.4578C13.6199 18.3472 13.6432 18.2287 13.6428 18.1091V17.8575C15.8593 17.3148 17.7902 15.9576 19.0516 14.0559L19.8419 14.2656C20.485 14.4324 21.1478 14.2199 21.7276 13.6598C22.306 13.0993 22.7681 12.1974 22.9341 11.1029C23.1018 10.0049 22.9387 8.94299 22.568 8.13705C22.1958 7.33112 21.6414 6.81927 21.0015 6.63564C20.7334 6.55843 20.4425 6.53009 20.1929 6.52286C19.6558 4.6736 18.5424 3.04405 17.0149 1.87145C15.5133 0.718743 13.6881 0.0659938 11.7961 0.00509393Z" fill="#3F3030"/>
<path fill-rule="evenodd" clip-rule="evenodd" d="M14.684 7.87623C14.9974 7.87662 15.2978 8.0013 15.5194 8.22292C15.741 8.44454 15.8656 8.74501 15.8659 9.05839C15.8653 9.37175 15.7406 9.67213 15.519 9.89371C15.2975 10.1153 14.9971 10.24 14.6837 10.2405C14.37 10.2406 14.0691 10.1162 13.8471 9.89449C13.6251 9.67283 13.5002 9.3721 13.4998 9.05839C13.4999 8.90301 13.5306 8.74916 13.5901 8.60564C13.6497 8.46212 13.7369 8.33174 13.8468 8.22193C13.9568 8.11213 14.0873 8.02506 14.2309 7.96569C14.3745 7.90633 14.5283 7.87583 14.6837 7.87594L14.684 7.87623ZM11.5002 7.87623C11.7339 7.87635 11.9624 7.94577 12.1567 8.07572C12.3511 8.20568 12.5025 8.39033 12.5919 8.60633C12.6813 8.82234 12.7046 9.06 12.659 9.28927C12.6133 9.51854 12.5007 9.72912 12.3354 9.8944C12.1701 10.0597 11.9595 10.1722 11.7302 10.2178C11.5009 10.2634 11.2632 10.24 11.0473 10.1506C10.8313 10.0611 10.6467 9.90967 10.5168 9.71531C10.3869 9.52096 10.3175 9.29245 10.3174 9.05868C10.3173 8.90332 10.3478 8.74945 10.4071 8.60589C10.4665 8.46232 10.5536 8.33188 10.6635 8.22202C10.7734 8.11216 10.9038 8.02505 11.0474 7.96566C11.1909 7.90628 11.3448 7.87608 11.5002 7.87623ZM8.31719 7.87623C8.47463 7.87275 8.63118 7.90075 8.77766 7.9586C8.92413 8.01644 9.05757 8.10296 9.17016 8.21308C9.28274 8.3232 9.37219 8.4547 9.43326 8.59985C9.49432 8.74501 9.52578 8.90091 9.52578 9.05839C9.52578 9.21587 9.49432 9.37177 9.43326 9.51693C9.37219 9.66208 9.28274 9.79358 9.17016 9.9037C9.05757 10.0138 8.92413 10.1003 8.77766 10.1582C8.63118 10.216 8.47463 10.244 8.31719 10.2405C8.00682 10.2357 7.71081 10.109 7.49305 9.8878C7.27528 9.6666 7.15323 9.36865 7.15323 9.05825C7.15323 8.74784 7.27528 8.44989 7.49305 8.22869C7.71081 8.0075 8.00682 7.88109 8.31719 7.87623ZM11.5002 2.79712C8.03292 2.79712 5.23889 5.49919 5.23889 9.0581C5.23889 10.7674 5.8852 12.2781 6.9381 13.3865L6.56448 15.0614C6.44129 15.6126 6.82358 15.9833 7.31923 15.7074L8.95453 14.7951C9.75802 15.143 10.6246 15.3216 11.5002 15.3197C14.9686 15.3197 17.7609 12.6193 17.7609 9.05897C17.7609 5.49977 14.9686 2.7977 11.5002 2.7977V2.79712Z" fill="#3F3030"/>
</svg>
