<svg width="78" height="79" viewBox="0 0 78 79" fill="none" xmlns="http://www.w3.org/2000/svg">
<path d="M31.7836 10.0564H53.4108C53.7361 10.0564 54.0481 9.92714 54.2781 9.69714C54.5081 9.46713 54.6373 9.15518 54.6373 8.82991C54.6373 8.50463 54.5081 8.19268 54.2781 7.96267C54.0481 7.73267 53.7361 7.60345 53.4108 7.60345H31.7836C31.4583 7.60345 31.1464 7.73267 30.9163 7.96267C30.6863 8.19268 30.5571 8.50463 30.5571 8.82991C30.5571 9.15518 30.6863 9.46713 30.9163 9.69714C31.1464 9.92714 31.4583 10.0564 31.7836 10.0564Z" fill="#3F3030"/>
<path d="M31.7836 15.9813H53.4108C53.7361 15.9813 54.0481 15.8521 54.2781 15.6221C54.5081 15.3921 54.6373 15.0801 54.6373 14.7548C54.6373 14.4296 54.5081 14.1176 54.2781 13.8876C54.0481 13.6576 53.7361 13.5284 53.4108 13.5284H31.7836C31.4583 13.5284 31.1464 13.6576 30.9163 13.8876C30.6863 14.1176 30.5571 14.4296 30.5571 14.7548C30.5571 15.0801 30.6863 15.3921 30.9163 15.6221C31.1464 15.8521 31.4583 15.9813 31.7836 15.9813Z" fill="#3F3030"/>
<path d="M31.7836 21.9062H42.5974C42.9227 21.9062 43.2346 21.777 43.4646 21.547C43.6946 21.317 43.8238 21.005 43.8238 20.6798C43.8238 20.3545 43.6946 20.0425 43.4646 19.8125C43.2346 19.5825 42.9227 19.4533 42.5974 19.4533H31.7836C31.4583 19.4533 31.1464 19.5825 30.9163 19.8125C30.6863 20.0425 30.5571 20.3545 30.5571 20.6798C30.5571 21.005 30.6863 21.317 30.9163 21.547C31.1464 21.777 31.4583 21.9062 31.7836 21.9062Z" fill="#3F3030"/>
<path d="M31.7836 32.2144H53.4108C53.7361 32.2144 54.0481 32.0852 54.2781 31.8552C54.5081 31.6252 54.6373 31.3132 54.6373 30.9879C54.6373 30.6626 54.5081 30.3507 54.2781 30.1207C54.0481 29.8907 53.7361 29.7615 53.4108 29.7615H31.7836C31.4583 29.7615 31.1464 29.8907 30.9163 30.1207C30.6863 30.3507 30.5571 30.6626 30.5571 30.9879C30.5571 31.3132 30.6863 31.6252 30.9163 31.8552C31.1464 32.0852 31.4583 32.2144 31.7836 32.2144Z" fill="#3F3030"/>
<path d="M31.7836 38.1394H48.4253C48.7506 38.1394 49.0626 38.0101 49.2926 37.7801C49.5226 37.5501 49.6518 37.2382 49.6518 36.9129C49.6518 36.5876 49.5226 36.2757 49.2926 36.0457C49.0626 35.8157 48.7506 35.6865 48.4253 35.6865H31.7836C31.4583 35.6865 31.1464 35.8157 30.9163 36.0457C30.6863 36.2757 30.5571 36.5876 30.5571 36.9129C30.5571 37.2382 30.6863 37.5501 30.9163 37.7801C31.1464 38.0101 31.4583 38.1394 31.7836 38.1394Z" fill="#3F3030"/>
<path d="M31.7836 44.0643H39.6862C40.0115 44.0643 40.3235 43.9351 40.5535 43.7051C40.7835 43.4751 40.9127 43.1631 40.9127 42.8378C40.9127 42.5126 40.7835 42.2006 40.5535 41.9706C40.3235 41.7406 40.0115 41.6114 39.6862 41.6114H31.7836C31.4583 41.6114 31.1464 41.7406 30.9163 41.9706C30.6863 42.2006 30.5571 42.5126 30.5571 42.8378C30.5571 43.1631 30.6863 43.4751 30.9163 43.7051C31.1464 43.9351 31.4583 44.0643 31.7836 44.0643Z" fill="#3F3030"/>
<path d="M41.6786 51.1948H31.7836C31.6225 51.1948 31.463 51.2265 31.3142 51.2882C31.1654 51.3498 31.0302 51.4402 30.9163 51.554C30.8025 51.6679 30.7121 51.8031 30.6505 51.9519C30.5889 52.1007 30.5571 52.2602 30.5571 52.4213C30.5571 52.5823 30.5889 52.7418 30.6505 52.8906C30.7121 53.0394 30.8025 53.1746 30.9163 53.2885C31.0302 53.4024 31.1654 53.4927 31.3142 53.5544C31.463 53.616 31.6225 53.6477 31.7836 53.6477H41.6786C42.0039 53.6477 42.3159 53.5185 42.5459 53.2885C42.7759 53.0585 42.9051 52.7466 42.9051 52.4213C42.9051 52.096 42.7759 51.784 42.5459 51.554C42.3159 51.324 42.0039 51.1948 41.6786 51.1948Z" fill="#3F3030"/>
<path d="M41.6786 57.1198H31.7836C31.4583 57.1198 31.1464 57.249 30.9163 57.479C30.6863 57.709 30.5571 58.0209 30.5571 58.3462C30.5571 58.6715 30.6863 58.9834 30.9163 59.2134C31.1464 59.4434 31.4583 59.5727 31.7836 59.5727H41.6786C42.0039 59.5727 42.3159 59.4434 42.5459 59.2134C42.7759 58.9834 42.9051 58.6715 42.9051 58.3462C42.9051 58.0209 42.7759 57.709 42.5459 57.479C42.3159 57.249 42.0039 57.1198 41.6786 57.1198Z" fill="#3F3030"/>
<path d="M37.666 63.0447H31.7836C31.4583 63.0447 31.1464 63.1739 30.9163 63.4039C30.6863 63.6339 30.5571 63.9459 30.5571 64.2711C30.5571 64.5964 30.6863 64.9084 30.9163 65.1384C31.1464 65.3684 31.4583 65.4976 31.7836 65.4976H37.666C37.9913 65.4976 38.3033 65.3684 38.5333 65.1384C38.7633 64.9084 38.8925 64.5964 38.8925 64.2711C38.8925 63.9459 38.7633 63.6339 38.5333 63.4039C38.3033 63.1739 37.9913 63.0447 37.666 63.0447Z" fill="#3F3030"/>
<path d="M13.734 15.4234H17.3767L15.555 11.0375L13.734 15.4234Z" fill="#3F3030"/>
<path d="M21.5746 5.8847H10.2292C9.22422 5.8861 8.26074 6.28591 7.55001 6.9965C6.83928 7.70709 6.43927 8.67049 6.43768 9.67552V19.8341C6.43947 20.839 6.83956 21.8022 7.55027 22.5126C8.26099 23.2231 9.22435 23.6228 10.2292 23.6242H21.5746C22.5795 23.6227 23.5427 23.2229 24.2534 22.5125C24.964 21.8021 25.364 20.8389 25.3658 19.8341V9.67552C25.3642 8.67056 24.9643 7.70721 24.2536 6.99663C23.543 6.28605 22.5796 5.8862 21.5746 5.8847ZM19.6852 19.6356C19.526 19.6361 19.37 19.5901 19.2365 19.5033C19.1029 19.4165 18.9976 19.2927 18.9334 19.1469L17.9977 16.9019H13.1107L12.1765 19.1439C12.1127 19.2901 12.0075 19.4146 11.8739 19.5019C11.7404 19.5892 11.5843 19.6357 11.4247 19.6356C11.2896 19.639 11.156 19.6071 11.037 19.543C10.9181 19.4789 10.8179 19.3849 10.7465 19.2702C10.6751 19.1555 10.6348 19.0241 10.6297 18.8891C10.6247 18.7541 10.6549 18.6201 10.7176 18.5003L14.5061 9.5556C14.58 9.35647 14.7125 9.18444 14.8862 9.06227C15.0599 8.9401 15.2667 8.87355 15.479 8.87142H15.6294C15.8416 8.87312 16.0484 8.93923 16.2222 9.061C16.3961 9.18277 16.5289 9.35445 16.603 9.55334L20.3923 18.5003C20.4546 18.6201 20.4846 18.754 20.4794 18.8889C20.4741 19.0238 20.4339 19.155 20.3625 19.2696C20.2911 19.3842 20.1911 19.4782 20.0724 19.5424C19.9536 19.6065 19.8202 19.6387 19.6852 19.6356Z" fill="#3F3030"/>
<path d="M21.5746 28.0432H10.2292C9.22402 28.0445 8.26038 28.4445 7.54961 29.1553C6.83885 29.8662 6.43898 30.8299 6.43768 31.8351V41.9918C6.43917 42.9969 6.83913 43.9604 7.54988 44.6711C8.26062 45.3817 9.22415 45.7816 10.2292 45.783H21.5746C22.5796 45.7815 23.5431 45.3816 24.2537 44.6709C24.9644 43.9603 25.3643 42.9968 25.3658 41.9918V31.8351C25.3645 30.8299 24.9647 29.8663 24.254 29.1555C23.5433 28.4447 22.5798 28.0446 21.5746 28.0432ZM21.0295 34.3872H19.607C19.2958 36.0345 18.5993 37.5848 17.5744 38.9115C18.5355 39.7239 19.6125 40.3882 20.7698 40.8824C20.8871 40.9306 20.9934 41.002 21.0824 41.0923C21.1714 41.1826 21.2412 41.29 21.2876 41.408C21.334 41.526 21.356 41.6522 21.3524 41.779C21.3487 41.9057 21.3195 42.0304 21.2664 42.1455C21.1643 42.3743 20.9784 42.5551 20.7469 42.6507C20.5155 42.7463 20.2561 42.7495 20.0224 42.6594C18.6584 42.0763 17.3922 41.2866 16.2685 40.3182C15.0098 41.406 13.5295 42.207 11.9303 42.6654C11.8091 42.7067 11.6809 42.7231 11.5533 42.7136C11.4256 42.7041 11.3012 42.6689 11.1875 42.6102C11.0738 42.5514 10.973 42.4704 10.8914 42.3718C10.8098 42.2732 10.7488 42.1592 10.7123 42.0365C10.6756 41.9144 10.6635 41.7862 10.6767 41.6594C10.6899 41.5325 10.7282 41.4096 10.7893 41.2977C10.8505 41.1857 10.9332 41.0871 11.0328 41.0074C11.1324 40.9277 11.2468 40.8687 11.3694 40.8336C12.6649 40.4659 13.8709 39.8354 14.9121 38.9814C14.2673 38.2182 13.7168 37.3801 13.2723 36.4853C13.2153 36.3731 13.1812 36.2507 13.1721 36.1251C13.163 35.9996 13.179 35.8736 13.2193 35.7543C13.2595 35.6351 13.3231 35.525 13.4064 35.4307C13.4897 35.3364 13.591 35.2596 13.7043 35.2049C13.8172 35.1477 13.9404 35.1135 14.0666 35.1043C14.1929 35.095 14.3197 35.1109 14.4397 35.151C14.5598 35.1911 14.6707 35.2546 14.7661 35.3379C14.8614 35.4211 14.9393 35.5225 14.9952 35.6361C15.3325 36.3181 15.7464 36.9594 16.229 37.5476C16.9124 36.6023 17.3965 35.528 17.6519 34.3899H10.774C10.5172 34.388 10.2717 34.2843 10.0913 34.1017C9.91089 33.919 9.8103 33.6722 9.8116 33.4155C9.81024 33.2887 9.8342 33.163 9.88209 33.0456C9.92997 32.9282 10.0008 32.8216 10.0904 32.732C10.1801 32.6423 10.2867 32.5715 10.4041 32.5236C10.5215 32.4757 10.6472 32.4518 10.774 32.4531H14.9283V31.3355C14.9284 31.0802 15.0298 30.8354 15.2102 30.6548C15.3907 30.4743 15.6354 30.3727 15.8907 30.3724C16.0175 30.371 16.1434 30.3949 16.2609 30.4428C16.3784 30.4907 16.4851 30.5616 16.5748 30.6513C16.6645 30.741 16.7354 30.8478 16.7833 30.9653C16.8312 31.0827 16.8552 31.2086 16.8538 31.3355V32.4505H21.0299C21.2867 32.4505 21.533 32.5525 21.7147 32.7341C21.8963 32.9157 21.9983 33.162 21.9983 33.4189C21.9983 33.6757 21.8963 33.922 21.7147 34.1036C21.533 34.2852 21.2864 34.3872 21.0295 34.3872Z" fill="#3F3030"/>
<path d="M21.5746 49.4761H10.2292C9.22415 49.4775 8.26062 49.8773 7.54988 50.588C6.83913 51.2987 6.43917 52.2622 6.43768 53.2673V63.4247C6.43927 64.4297 6.83928 65.3931 7.55001 66.1037C8.26074 66.8143 9.22422 67.2141 10.2292 67.2155H21.5746C22.5796 67.214 23.543 66.8142 24.2536 66.1036C24.9643 65.393 25.3642 64.4297 25.3658 63.4247V53.2673C25.3643 52.2622 24.9644 51.2988 24.2537 50.5881C23.5431 49.8775 22.5796 49.4776 21.5746 49.4761ZM16.1049 60.0715C16.1049 61.0486 15.7168 61.9856 15.0259 62.6765C14.335 63.3674 13.398 63.7555 12.4209 63.7555C11.4438 63.7555 10.5068 63.3674 9.81587 62.6765C9.12497 61.9856 8.73683 61.0486 8.73683 60.0715V58.6723C8.73683 58.467 8.81838 58.2701 8.96354 58.125C9.1087 57.9798 9.30557 57.8983 9.51086 57.8983C9.71614 57.8983 9.91302 57.9798 10.0582 58.125C10.2033 58.2701 10.2849 58.467 10.2849 58.6723V60.07C10.2849 60.3505 10.3401 60.6282 10.4475 60.8873C10.5548 61.1464 10.7121 61.3819 10.9104 61.5802C11.1088 61.7785 11.3442 61.9359 11.6034 62.0432C11.8625 62.1505 12.1402 62.2058 12.4207 62.2058C12.7012 62.2058 12.9789 62.1505 13.238 62.0432C13.4972 61.9359 13.7326 61.7785 13.9309 61.5802C14.1293 61.3819 14.2866 61.1464 14.3939 60.8873C14.5013 60.6282 14.5565 60.3505 14.5565 60.07V52.6331C14.5565 52.4279 14.638 52.2311 14.7831 52.086C14.9282 51.9409 15.125 51.8594 15.3302 51.8594C15.5353 51.8594 15.7321 51.9409 15.8772 52.086C16.0223 52.2311 16.1038 52.4279 16.1038 52.6331L16.1049 60.0715ZM18.371 63.8563C18.2142 63.8555 18.0611 63.8084 17.9309 63.7208C17.8008 63.6332 17.6996 63.5091 17.6399 63.364C17.5802 63.219 17.5647 63.0596 17.5955 62.9058C17.6262 62.752 17.7018 62.6107 17.8127 62.4998C17.9236 62.3889 18.0648 62.3132 18.2186 62.2824C18.3724 62.2516 18.5318 62.2669 18.6769 62.3266C18.822 62.3862 18.9461 62.4874 19.0338 62.6175C19.1214 62.7475 19.1686 62.9006 19.1695 63.0574C19.1691 63.2691 19.0848 63.4719 18.9352 63.6216C18.7855 63.7713 18.5826 63.8559 18.371 63.8563ZM20.8431 63.8187C20.6863 63.8179 20.5333 63.7707 20.4033 63.6831C20.2733 63.5955 20.1721 63.4713 20.1125 63.3263C20.0529 63.1813 20.0376 63.022 20.0684 62.8683C20.0992 62.7145 20.1748 62.5734 20.2857 62.4626C20.3966 62.3517 20.5377 62.2762 20.6915 62.2455C20.8452 62.2147 21.0046 62.2302 21.1495 62.2898C21.2945 62.3495 21.4186 62.4507 21.5061 62.5808C21.5937 62.7108 21.6408 62.8638 21.6415 63.0206C21.6413 63.2323 21.5572 63.4354 21.4075 63.5851C21.2578 63.7349 21.0548 63.8191 20.8431 63.8194V63.8187ZM21.993 59.3512C21.997 59.6664 21.9383 59.9793 21.8204 60.2717C21.7025 60.5641 21.5278 60.8302 21.3062 61.0545C21.0847 61.2788 20.8209 61.4569 20.53 61.5785C20.2391 61.7 19.927 61.7626 19.6117 61.7626C19.2965 61.7626 18.9844 61.7 18.6935 61.5785C18.4026 61.4569 18.1387 61.2788 17.9172 61.0545C17.6957 60.8302 17.5209 60.5641 17.403 60.2717C17.2852 59.9793 17.2265 59.6664 17.2304 59.3512V54.8337C17.2304 54.6285 17.312 54.4316 17.4572 54.2864C17.6023 54.1413 17.7992 54.0597 18.0045 54.0597C18.2098 54.0597 18.4066 54.1413 18.5518 54.2864C18.697 54.4316 18.7785 54.6285 18.7785 54.8337V59.352C18.7761 59.4629 18.796 59.5731 18.8368 59.6763C18.8776 59.7794 18.9386 59.8734 19.0162 59.9527C19.0938 60.032 19.1865 60.0949 19.2887 60.1379C19.391 60.1809 19.5008 60.2031 19.6117 60.2031C19.7227 60.2031 19.8325 60.1809 19.9348 60.1379C20.037 60.0949 20.1297 60.032 20.2073 59.9527C20.2849 59.8734 20.3459 59.7794 20.3867 59.6763C20.4275 59.5731 20.4473 59.4629 20.445 59.352V58.8174C20.445 58.6121 20.5265 58.4152 20.6717 58.2701C20.8168 58.1249 21.0137 58.0434 21.219 58.0434C21.4243 58.0434 21.6212 58.1249 21.7663 58.2701C21.9115 58.4152 21.993 58.6121 21.993 58.8174V59.3512Z" fill="#3F3030"/>
<path d="M76.5098 46.9976L74.3577 45.7518V43.2636C74.3619 42.8753 74.2886 42.4901 74.1419 42.1305C73.9953 41.771 73.7783 41.4443 73.5038 41.1697C73.2292 40.8951 72.9026 40.6781 72.5431 40.5315C72.1835 40.3848 71.7983 40.3114 71.4101 40.3156H68.9214L67.6783 38.1645C67.2867 37.4895 66.6442 36.9965 65.8908 36.7929C65.1375 36.5894 64.3342 36.6917 63.6559 37.0777L61.5041 38.3262L61.0767 38.0788V7.26022C61.0743 5.33547 60.3084 3.49028 58.9472 2.12952C57.5859 0.768757 55.7405 0.00358318 53.8157 0.00189209H7.26059C5.3359 0.00368268 3.49052 0.768901 2.12935 2.12965C0.76818 3.4904 0.0023886 5.33554 0 7.26022V65.8348C0.00189112 67.7598 0.767463 69.6054 2.12869 70.9665C3.48991 72.3277 5.33557 73.0932 7.26059 73.095H45.8303C45.8143 73.3935 45.8654 73.6919 45.9797 73.9682C46.094 74.2444 46.2687 74.4916 46.491 74.6916C46.7132 74.8915 46.9774 75.0392 47.2642 75.1238C47.551 75.2083 47.8531 75.2276 48.1483 75.1802L51.0549 74.7017L52.1098 77.473C52.2452 77.8231 52.4768 78.1279 52.7779 78.3521C53.079 78.5763 53.4373 78.711 53.8116 78.7404C54.1859 78.7699 54.5608 78.693 54.8933 78.5187C55.2258 78.3443 55.5022 78.0795 55.6908 77.7549L61.1842 68.2177L61.5033 68.0332L61.8086 68.2091L67.305 77.7545C67.495 78.0801 67.7732 78.3454 68.1075 78.5196C68.4418 78.6938 68.8186 78.77 69.1943 78.7393C69.57 78.7085 69.9294 78.5721 70.2309 78.3459C70.5325 78.1196 70.7639 77.8127 70.8984 77.4606L71.9409 74.7013L74.8355 75.1671C75.2083 75.2327 75.5922 75.1903 75.9418 75.045C76.2914 74.8997 76.5921 74.6575 76.8087 74.347C77.0252 74.0364 77.1484 73.6704 77.1639 73.2922C77.1794 72.9139 77.0864 72.5391 76.8959 72.2119L73.0551 65.5536C73.4589 65.2843 73.7893 64.9187 74.0162 64.4897C74.2432 64.0607 74.3596 63.5819 74.355 63.0965V60.6008L76.529 59.3478C78.0936 58.4178 78.3646 56.4017 77.5538 55.2597L76.3459 53.1714L77.6365 50.9666C78.0037 50.2888 78.0914 49.4944 77.8809 48.7528C77.6704 48.0113 77.1784 47.3814 76.5098 46.9976ZM7.26059 70.6432C5.98619 70.6412 4.76454 70.1341 3.86337 69.233C2.96219 68.3319 2.45499 67.1103 2.4529 65.8359V7.26022C2.453 5.98521 2.95957 4.76245 3.86117 3.86092C4.76278 2.95938 5.98557 2.45291 7.26059 2.45291H53.8157C54.447 2.45291 55.0721 2.57726 55.6554 2.81885C56.2386 3.06044 56.7686 3.41454 57.215 3.86094C57.6614 4.30734 58.0155 4.8373 58.2571 5.42055C58.4987 6.0038 58.623 6.62892 58.623 7.26022V36.7954C57.9967 36.6354 57.3353 36.6824 56.7379 36.9294C56.1405 37.1763 55.639 37.6101 55.3085 38.1657L54.0713 40.3167H51.5767C50.7961 40.3186 50.0482 40.63 49.4969 41.1827C48.9457 41.7353 48.6361 42.4841 48.6362 43.2647V45.7518L46.489 46.9923C46.1524 47.1844 45.8572 47.4411 45.6201 47.7476C45.383 48.0542 45.2089 48.4045 45.1076 48.7785C45.0063 49.1526 44.9798 49.5429 45.0298 49.9272C45.0798 50.3114 45.2052 50.6821 45.3988 51.0177L46.648 53.1695L45.3657 55.3875C44.9991 56.0657 44.9109 56.8601 45.12 57.6023C45.329 58.3444 45.8188 58.976 46.4856 59.3632L48.6366 60.6V63.0947C48.6369 63.5803 48.7571 64.0583 48.9867 64.4862C49.2162 64.9141 49.5479 65.2787 49.9523 65.5476L47.0104 70.6402L7.26059 70.6432ZM73.8667 53.7845C75.8125 57.1483 75.4152 56.4829 75.505 56.6145C75.5488 56.728 75.5504 56.8534 75.5094 56.9679C75.4685 57.0824 75.3878 57.1785 75.2821 57.2385L72.5179 58.8313C72.3312 58.9388 72.1761 59.0935 72.0682 59.2801C71.9604 59.4666 71.9036 59.6782 71.9036 59.8937V63.0973C71.906 63.1629 71.8947 63.2282 71.8707 63.2893C71.8467 63.3504 71.8103 63.4058 71.7639 63.4522C71.7175 63.4986 71.662 63.535 71.601 63.559C71.5399 63.5831 71.4745 63.5943 71.4089 63.592H68.2136C67.9982 63.5921 67.7866 63.6489 67.6001 63.7567C67.4136 63.8646 67.2588 64.0196 67.1512 64.2063L65.5599 66.9655C65.5168 67.043 65.4536 67.1073 65.377 67.1519C65.3004 67.1965 65.2132 67.2197 65.1246 67.2189C64.8874 67.2189 64.9957 67.1907 62.1172 65.5547C61.9305 65.447 61.7187 65.3903 61.5032 65.3903C61.2876 65.3903 61.0758 65.447 60.8891 65.5547L58.1542 67.1385C58.0376 67.2091 57.8982 67.2319 57.7651 67.2022C57.632 67.1725 57.5155 67.0926 57.44 66.9791L55.8416 64.2051C55.734 64.0185 55.5792 63.8634 55.3927 63.7556C55.2062 63.6478 54.9946 63.591 54.7792 63.5909H51.5767C51.4468 63.5885 51.3229 63.5355 51.2316 63.443C51.1403 63.3506 51.0888 63.2261 51.088 63.0962V59.8925C51.0879 59.6769 51.0311 59.465 50.9231 59.2783C50.8151 59.0916 50.6599 58.9367 50.473 58.829L47.722 57.2475C47.6082 57.1863 47.5222 57.0837 47.4817 56.961C47.4411 56.8384 47.4491 56.7048 47.504 56.5878L49.1257 53.7834C49.2339 53.5965 49.291 53.3844 49.291 53.1684C49.291 52.9524 49.2339 52.7403 49.1257 52.5534L47.534 49.8118C47.4985 49.7553 47.4749 49.6922 47.4646 49.6263C47.4543 49.5604 47.4575 49.4931 47.474 49.4285C47.4906 49.3639 47.5201 49.3033 47.5608 49.2505C47.6014 49.1977 47.6525 49.1537 47.7107 49.1212L50.4768 47.5228C50.6631 47.415 50.8178 47.2601 50.9254 47.0736C51.0329 46.8872 51.0895 46.6757 51.0895 46.4604V43.2651C51.0903 43.1351 51.1418 43.0106 51.2331 42.9181C51.3244 42.8256 51.4483 42.7724 51.5782 42.77H54.7818C54.9974 42.77 55.2091 42.7132 55.3957 42.6054C55.5824 42.4975 55.7373 42.3424 55.8449 42.1557L57.4238 39.4081C57.4881 39.2947 57.5922 39.2093 57.7159 39.1682C57.8395 39.1272 57.974 39.1335 58.0933 39.1859L60.8898 40.8069C61.0768 40.9153 61.2891 40.9724 61.5052 40.9724C61.7214 40.9724 61.9337 40.9153 62.1206 40.8069L64.8551 39.2194C64.912 39.1839 64.9754 39.1602 65.0416 39.1497C65.1078 39.1392 65.1755 39.1421 65.2406 39.1582C65.3057 39.1743 65.3669 39.2032 65.4205 39.2434C65.4742 39.2835 65.5193 39.334 65.5532 39.3919L67.1516 42.158C67.2593 42.3442 67.414 42.4989 67.6004 42.6064C67.7867 42.714 67.9981 42.7707 68.2132 42.7707H71.4086C71.4743 42.7677 71.5401 42.7785 71.6015 42.8023C71.6629 42.8261 71.7186 42.8625 71.7652 42.9091C71.8117 42.9557 71.8481 43.0115 71.8718 43.0729C71.8956 43.1343 71.9063 43.2 71.9033 43.2658V46.4612C71.9032 46.6765 71.9598 46.888 72.0675 47.0745C72.1751 47.261 72.3299 47.4159 72.5164 47.5235L75.2813 49.1212C75.3931 49.181 75.4778 49.2813 75.5181 49.4014C75.5585 49.5216 75.5515 49.6526 75.4986 49.7678L73.8697 52.5496C73.76 52.7366 73.7019 52.9494 73.7013 53.1662C73.7007 53.3831 73.7576 53.5962 73.8663 53.7838L73.8667 53.7845Z" fill="#3F3030"/>
<path d="M61.5053 44.0165C59.6933 44.0165 57.9221 44.5538 56.4155 45.5605C54.9089 46.5671 53.7347 47.9979 53.0413 49.672C52.3479 51.346 52.1665 53.188 52.5201 54.9651C52.8736 56.7423 53.7461 58.3746 55.0274 59.6559C56.3087 60.9371 57.9411 61.8096 59.7182 62.163C61.4953 62.5165 63.3374 62.335 65.0114 61.6415C66.6854 60.9481 68.1161 59.7738 69.1227 58.2672C70.1294 56.7606 70.6666 54.9893 70.6665 53.1774C70.6612 50.7493 69.6943 48.4222 67.9774 46.7053C66.2605 44.9885 63.9333 44.0216 61.5053 44.0165ZM65.6882 52.5278L63.824 54.3322L64.2657 56.9073C64.2785 56.9655 64.2741 57.0261 64.253 57.0818C64.2319 57.1375 64.1951 57.1859 64.1469 57.221C64.0988 57.2562 64.0415 57.2765 63.982 57.2796C63.9225 57.2827 63.8634 57.2684 63.8119 57.2385L61.5064 56.0246L59.1884 57.2385C59.1362 57.2677 59.0767 57.2815 59.0169 57.2782C58.9571 57.275 58.8995 57.2549 58.8507 57.2202C58.8019 57.1855 58.7639 57.1377 58.7412 57.0823C58.7185 57.0269 58.7119 56.9662 58.7223 56.9073L59.176 54.3322L57.2994 52.5278C57.2579 52.4846 57.229 52.4309 57.2158 52.3725C57.2026 52.3141 57.2056 52.2532 57.2246 52.1964C57.2435 52.1396 57.2776 52.0891 57.3232 52.0503C57.3688 52.0115 57.4242 51.9859 57.4832 51.9763L60.0587 51.5955L61.2241 49.2535C61.2505 49.2014 61.2908 49.1576 61.3406 49.1271C61.3904 49.0965 61.4476 49.0804 61.506 49.0804C61.5644 49.0804 61.6217 49.0965 61.6714 49.1271C61.7212 49.1576 61.7615 49.2014 61.788 49.2535L62.9405 51.5955L65.516 51.9763C65.5758 51.985 65.6319 52.0104 65.6778 52.0496C65.7238 52.0887 65.7577 52.1401 65.7757 52.1978C65.7937 52.2555 65.7951 52.317 65.7796 52.3754C65.7641 52.4338 65.7324 52.4866 65.6882 52.5278Z" fill="#3F3030"/>
</svg>
