<svg width="419" height="227" viewBox="0 0 419 227" fill="none" xmlns="http://www.w3.org/2000/svg">
<path d="M25.1837 226.886C25.1837 226.886 -25.2712 172.83 16.651 114.306C53.8471 62.3794 97.214 65.9291 129.032 87.0009C142.583 95.9758 181.654 88.1072 214.908 35.2701C260.257 -36.7851 417.454 6.91693 388.792 117.776C374.922 171.424 431.005 173.374 402.429 227L25.1837 226.886Z" fill="white"/>
<g clip-path="url(#clip0_16_8)">
<mask id="mask0_16_8" style="mask-type:luminance" maskUnits="userSpaceOnUse" x="235" y="51" width="33" height="33">
<path d="M235.255 51.5909H267.241V83.5773H235.255V51.5909Z" fill="white"/>
</mask>
<g mask="url(#mask0_16_8)">
<path d="M252.114 72.4753C252.301 71.9955 252.181 71.4491 251.807 71.0759L249.022 68.3304L249.062 68.2905C251.32 65.781 253.007 62.8118 254.007 59.5875H256.592C257.312 59.5875 257.912 58.9878 257.912 58.2681V58.2414C257.912 57.5217 257.312 56.922 256.592 56.922H248.582V55.5892C248.582 54.8562 247.982 54.2564 247.249 54.2564C246.516 54.2564 245.917 54.8562 245.917 55.5892V56.922H237.907C237.187 56.922 236.587 57.5217 236.587 58.2414C236.587 58.9744 237.187 59.5608 237.907 59.5608H251.474C250.56 62.2056 249.123 64.6395 247.249 66.7178C246.17 65.5316 245.264 64.2389 244.504 62.8794C244.404 62.6906 244.254 62.5326 244.071 62.4223C243.888 62.3119 243.678 62.2534 243.464 62.253C242.545 62.253 241.958 63.2526 242.411 64.0523C243.251 65.5583 244.277 66.9977 245.477 68.3304L239.653 74.0747C239.526 74.1976 239.425 74.3447 239.357 74.5073C239.288 74.6698 239.253 74.8445 239.253 75.0209C239.253 75.1974 239.288 75.372 239.357 75.5346C239.425 75.6971 239.526 75.8442 239.653 75.9672C240.172 76.487 241.012 76.487 241.545 75.9672L247.249 70.2496L249.942 72.9418C250.621 73.6215 251.781 73.3683 252.114 72.4753ZM258.578 64.9186C257.778 64.9186 257.059 65.4117 256.779 66.1714L251.887 79.2325C251.568 80.0454 252.181 80.9117 253.047 80.9117C253.567 80.9117 254.033 80.5919 254.22 80.0988L255.406 76.9134H261.737L262.936 80.0988C263.123 80.5785 263.589 80.9117 264.109 80.9117C264.975 80.9117 265.588 80.0454 265.282 79.2325L260.39 66.1714C260.097 65.4117 259.378 64.9186 258.578 64.9186ZM256.419 74.2479L258.578 68.477L260.737 74.2479H256.419Z" fill="#3F3030"/>
</g>
</g>
<g clip-path="url(#clip1_16_8)">
<path d="M69.9344 162.128L40.0049 189.584L67.5351 219.434L97.4646 191.977L69.9344 162.128Z" fill="#F5F3F0"/>
<path d="M69.9344 162.128L40.0049 189.584L45.5496 195.596L75.479 168.14L69.9344 162.128Z" fill="#887E7D"/>
<path d="M157.311 44.5641L177.828 47.4831L164.213 38.2278L163.521 41.1942L158.532 42.0954L157.311 44.5641Z" fill="#3F3030"/>
<path d="M177.829 47.483L160.755 38.7038L144.021 37.8644L177.829 47.483Z" fill="#3F3030"/>
<path d="M164 38.2096L177.615 47.4649L167.075 33L164 38.2096Z" fill="#3F3030"/>
<path d="M264.412 127.982L262.733 129.184L261.045 127.995C261.235 127.727 261.487 127.508 261.779 127.356C262.071 127.204 262.396 127.124 262.725 127.123C263.055 127.122 263.38 127.199 263.673 127.349C263.967 127.498 264.22 127.715 264.412 127.982Z" fill="#3F3030"/>
<path d="M262.733 124.195C261.931 124.194 261.142 124.387 260.431 124.755C259.72 125.124 259.108 125.658 258.648 126.312L259.714 127.058C260.053 126.577 260.503 126.185 261.026 125.913C261.549 125.641 262.129 125.498 262.718 125.496C263.308 125.494 263.889 125.633 264.414 125.901C264.939 126.169 265.392 126.558 265.735 127.036L266.796 126.277C266.334 125.633 265.724 125.108 265.017 124.745C264.31 124.383 263.527 124.194 262.733 124.195Z" fill="#3F3030"/>
<path d="M262.733 118.628C259.161 118.628 256.003 120.398 254.089 123.106L255.154 123.852C256.007 122.645 257.136 121.659 258.449 120.976C259.761 120.294 261.219 119.935 262.699 119.93C264.179 119.924 265.639 120.272 266.956 120.945C268.274 121.617 269.411 122.595 270.272 123.795L271.329 123.036C270.352 121.672 269.062 120.56 267.566 119.793C266.071 119.027 264.414 118.627 262.733 118.628Z" fill="#3F3030"/>
<path d="M262.733 121.674C261.526 121.673 260.336 121.961 259.263 122.514C258.191 123.067 257.267 123.868 256.568 124.85L257.634 125.596C258.211 124.789 258.972 124.13 259.855 123.674C260.737 123.219 261.716 122.979 262.71 122.975C263.704 122.972 264.684 123.204 265.57 123.653C266.456 124.101 267.222 124.754 267.805 125.557L268.863 124.802C268.163 123.833 267.242 123.045 266.176 122.501C265.11 121.957 263.93 121.673 262.733 121.674Z" fill="#3F3030"/>
<path d="M159.835 107.343L155.103 107.235C156.624 109.2 156.965 111.01 156.018 112.541C155.072 114.104 152.807 115.388 149.425 116.363C153.515 105.415 154.365 93.5257 151.873 82.1101C149.382 70.6945 143.654 60.2334 135.371 51.9719C124.045 40.6757 108.734 34.1183 92.1688 34.1183C83.0074 34.0978 73.9601 36.1447 65.7044 40.1057L65.6964 40.1096C63.0683 39.3099 60.5085 38.6543 58.0387 38.1552C45.5714 35.6312 36.7238 37.3757 33.1299 43.0656C29.7097 48.4771 31.5718 56.6225 38.3582 66.1235L38.3557 66.128C36.7522 69.1058 35.398 72.2106 34.307 75.4107C21.5557 76.1687 14.73 78.4068 12.248 82.4604C9.36274 87.179 13.3029 93.5119 25.9145 99.6698C27.6519 100.521 29.5134 101.357 31.468 102.192C32.9788 115.431 39.026 128.264 48.9507 138.162C54.5227 143.719 61.117 148.152 68.3724 151.219C90.6603 160.595 117.229 156.205 135.371 138.162C140.804 132.755 145.162 126.372 148.216 119.349C154.436 118.065 158.532 116.054 160.16 113.393C161.293 111.551 161.153 109.509 159.835 107.343ZM145.237 117.322C141.095 118.064 135.93 118.498 129.895 118.56C120.532 118.673 109.778 117.936 98.4448 116.446C99.3985 114.376 100.332 112.251 101.245 110.073C104.581 111.199 107.982 112.121 111.43 112.834C115.159 113.589 118.562 113.962 121.599 113.962C128.719 113.962 133.82 111.912 136.339 107.924C136.753 107.267 137.093 106.566 137.352 105.834H133.723C133.663 105.944 133.599 106.053 133.532 106.159C131.661 109.122 127.479 110.652 121.607 110.651C118.799 110.651 115.602 110.301 112.089 109.59C108.845 108.919 105.644 108.055 102.503 107.003C103.377 104.823 104.225 102.603 105.047 100.344C107.259 94.2605 109.153 88.2298 110.685 82.439C123.1 84.2645 136.072 84.3193 148.533 83.3821C149.325 87.2239 149.723 91.1363 149.72 95.0585C149.737 102.704 148.212 110.275 145.237 117.322ZM69.6239 147.533C67.8588 146.895 66.9626 144.368 66.5217 142.361C65.825 139.188 65.699 134.733 66.1575 129.476C66.3893 126.817 66.7619 123.991 67.2637 121.034C74.5575 122.977 81.7015 125.443 88.6402 128.41C87.0687 131.113 85.4797 133.619 83.8909 135.89C80.8635 140.218 77.9031 143.557 75.3294 145.546C73.7008 146.805 71.3892 148.172 69.6239 147.533ZM90.2383 125.582C82.9752 122.457 75.4903 119.872 67.8449 117.848C68.1121 116.475 68.405 115.08 68.7236 113.661C70.8322 114.139 72.9696 114.602 75.1359 115.048C81.4724 116.34 87.7935 117.437 93.9808 118.325C92.7556 120.854 91.5081 123.273 90.2383 125.582ZM76.5323 112.758C74.0841 112.256 71.6733 111.731 69.3001 111.186C70.4164 106.553 71.7878 101.723 73.3886 96.8025C81.7104 101.904 90.1734 106.055 98.1865 109C97.1813 111.393 96.1504 113.722 95.094 115.986C89.007 115.115 82.7806 114.035 76.5323 112.758ZM56.2079 50.2264C60.8329 59.678 69.7473 67.4651 79.3404 72.6311C77.0163 77.6819 74.8028 83.0722 72.7675 88.6694C72.388 89.7129 72.0183 90.7545 71.6583 91.7941C59.501 83.9014 49.2082 74.8453 42.4562 66.0811L42.4535 66.0774C46.0288 60.0001 50.6907 54.6277 56.2079 50.2264ZM108.191 41.48C109.956 42.1185 110.853 44.6452 111.293 46.6529C111.99 49.8249 112.116 54.2805 111.658 59.5377C111.156 65.292 110 71.8279 108.281 78.7871C99.8262 77.3364 91.3774 74.9444 83.5984 71.1789C86.9138 64.2834 90.4195 58.1344 93.9245 53.1232C96.9517 48.7952 99.9123 45.4563 102.486 43.4671C103.829 42.4291 105.636 41.318 107.218 41.318C107.55 41.3151 107.879 41.3701 108.191 41.4805L108.191 41.48ZM107.477 81.9223C105.984 87.5224 104.146 93.3551 102.005 99.2438C101.179 101.514 100.326 103.745 99.4451 105.938C91.3999 102.993 82.8611 98.7798 74.4667 93.5755C74.9006 92.3107 75.3486 91.0421 75.8107 89.7697C77.8003 84.2985 79.9598 79.0327 82.2241 74.1012C90.1471 77.931 98.7302 80.4029 107.476 81.9228L107.477 81.9223ZM132.859 54.4624C140.019 61.5804 145.167 70.4589 147.78 80.1991C134.513 81.1667 122.355 80.8629 111.488 79.2942C113.212 72.2667 114.373 65.656 114.883 59.8168C115.445 53.3687 115.377 45.7311 112.755 41.4331C120.304 44.3116 127.155 48.7524 132.858 54.4629L132.859 54.4624ZM92.1688 37.6456C96.1136 37.642 100.048 38.0421 103.911 38.8396C99.3896 40.8026 94.7731 46.2659 91.2689 51.2758C87.6824 56.4031 84.101 62.6782 80.7191 69.7024C71.5902 64.7556 62.9675 57.1718 58.8456 48.238C68.5769 41.3335 80.2263 37.6305 92.1688 37.6456ZM35.9371 44.8301C37.8085 41.8675 41.9902 40.3385 47.8618 40.3385C50.6701 40.3385 53.867 40.6884 57.3803 41.3996C58.7143 41.6688 60.0751 41.9857 61.4626 42.3504L61.4661 42.3514C53.0831 47.1869 45.6996 54.184 40.2022 62.9567L40.1993 62.9614C35.0101 55.278 33.4508 48.7634 35.9371 44.8301ZM40.7295 69.2535L40.731 69.2505C47.8408 78.1133 58.32 87.1737 70.5641 95.0314C68.8279 100.301 67.3467 105.48 66.1513 110.444C55.9995 107.994 44.2001 104.53 34.8814 100.598C33.8104 89.8081 35.8387 78.937 40.7295 69.2535ZM28.7379 97.8437C17.7394 92.4907 12.7134 87.3231 14.9628 83.6567C16.7777 80.6862 23.386 78.6751 33.5003 77.9325C31.4613 84.7959 30.7522 91.9314 31.1734 98.9886C30.3356 98.6173 29.529 98.2306 28.7379 97.8437ZM65.5718 112.929C65.2581 114.325 64.9687 115.7 64.7035 117.054C63.9977 116.883 63.2914 116.717 62.5848 116.556C50.6454 113.845 41.6859 113.294 37.5327 113.201C36.504 110.113 35.7465 106.942 35.2688 103.723C43.403 106.843 52.5589 109.836 65.5718 112.929ZM38.736 116.475C43.1653 116.653 51.377 117.322 61.8665 119.703C62.617 119.874 63.3671 120.051 64.1167 120.235C63.5768 123.375 63.1784 126.376 62.9325 129.196C62.4664 134.54 62.4334 140.702 63.928 145.102C52.5243 138.678 43.643 128.586 38.736 116.475ZM74.7146 149.786C78.9727 147.561 83.251 142.449 86.5457 137.738C88.2452 135.309 89.9434 132.62 91.6197 129.718C101.354 134.124 110.63 139.475 119.312 145.696C112.528 149.31 105.087 151.534 97.4278 152.237C89.7686 152.939 82.046 152.106 74.7146 149.786ZM132.858 135.655C129.705 138.812 126.191 141.59 122.389 143.931C113.269 137.276 103.492 131.567 93.209 126.892C94.6122 124.327 95.9958 121.618 97.3462 118.79C106.691 120.025 115.675 120.766 123.877 120.958C126.017 121.019 128.096 121.019 130.113 121.004C135.34 120.942 139.994 120.633 143.981 120.076C141.179 125.856 137.419 131.123 132.858 135.655H132.858Z" fill="#3F3030"/>
<path d="M131.553 116.854L123.103 217.059C123.103 217.059 122.218 223.134 126.748 223.144C134.197 223.162 163.823 223.144 163.823 223.144C163.823 223.144 158.217 221.88 158.285 219.035C158.365 215.681 168.161 115.906 168.161 115.906L131.553 116.854Z" fill="#887E7D"/>
<path d="M166.226 221.326C164.761 221.33 136.464 221.419 129.211 221.326C126.049 221.287 125.495 218.523 125.469 216.734C125.459 216.235 125.491 215.736 125.565 215.242L125.784 212.638L126.345 206L126.839 200.135L127.475 192.599L128.01 186.238L134.015 115.035L170.623 114.087C170.623 114.087 166.497 155.843 163.578 186.238C163.253 189.624 162.943 192.872 162.656 195.903C162.563 196.87 162.473 197.815 162.387 198.738C162.116 201.614 161.869 204.254 161.654 206.586C161.54 207.815 161.436 208.957 161.341 210.003C160.968 214.102 160.75 216.719 160.747 217.217C160.744 217.489 160.768 217.761 160.818 218.028C161.419 221.222 165.676 221.326 166.226 221.326Z" fill="#3F3030"/>
<path d="M42.6477 62.3257L63.2307 144.782L66.0489 156.075L75.6355 194.481H253.739L218.404 62.3257H42.6477Z" fill="#3F3030"/>
<path d="M42.6473 62.3256L39.7947 63.274L71.8433 197.35L75.636 194.482L42.6473 62.3256Z" fill="#372121"/>
<path d="M71.8433 197.35H248.85L253.738 194.482H75.6357L71.8433 197.35Z" fill="#372121"/>
<path d="M134.003 223.183H172.327V221.366H134.003V223.183Z" fill="black"/>
<path d="M245.11 170.129L216.21 64.0735H43.5L43 62.3256H218.404L247.206 169.893L245.11 170.129Z" fill="#F1A34F"/>
<path d="M162.585 197.349L162.387 198.738L126.344 206L126.839 200.135L127.075 197.349L162.585 197.349Z" fill="#887E7D"/>
<path opacity="0.4" d="M166.226 221.326C164.761 221.33 136.464 221.419 129.211 221.326C126.049 221.287 125.495 218.523 125.469 216.734L161.341 210.003C160.968 214.102 160.75 216.719 160.747 217.217C160.745 217.489 160.769 217.761 160.819 218.028C161.419 221.222 165.676 221.326 166.226 221.326Z" fill="#3F3030"/>
<path opacity="0.4" d="M153.874 167.728L75.6357 194.482L66.049 156.075L153.874 167.728Z" fill="#F5F3F0"/>
<path d="M42.6473 62.3256H218.404L246.921 168.537H68.2543L42.6473 62.3256Z" fill="#3F3030"/>
<path d="M169.409 181.964C168.901 179.359 166.372 177.247 163.76 177.247C161.149 177.247 159.443 179.359 159.951 181.964C160.458 184.568 162.987 186.68 165.599 186.68C168.211 186.68 169.916 184.568 169.409 181.964Z" fill="white"/>
<path d="M238.633 163.935H74.0704L55.4337 89.8924L54.0055 84.2148L52.7861 79.3715L51.8105 75.494L49.9275 68.0149H212.118L212.231 68.4263L214.183 75.494L215.255 79.3715L216.596 84.2148L218.165 89.8924L238.633 163.935Z" fill="#E9F3FE"/>
<path d="M238.633 164.188H74.0704L55.4337 90.1454L54.0055 84.4679L52.7861 79.6246L51.8105 75.7472L49.9275 68.268H212.118L212.231 68.6795L214.183 75.7472L215.255 79.6246L216.596 84.4679L218.165 90.1454L238.633 164.188Z" fill="#F5F3F0"/>
<path d="M214.183 75.494H51.8105L49.9275 68.0149H212.055L212.231 68.4263L214.183 75.494Z" fill="#F5F3F0"/>
<path d="M54.4397 71.7544C54.2436 70.9704 54.7221 70.3348 55.5082 70.3348C56.2944 70.3348 57.0906 70.9704 57.2873 71.7544C57.4839 72.5385 57.0049 73.1741 56.2187 73.1741C55.4326 73.1741 54.6358 72.5385 54.4397 71.7544Z" fill="#E9F3FE"/>
<path d="M61.8009 72.8187C62.2604 72.2997 62.092 71.4026 61.4248 70.8149C60.7575 70.2272 59.8441 70.1714 59.3845 70.6904C58.925 71.2093 59.0934 72.1064 59.7607 72.6941C60.4279 73.2819 61.3414 73.3376 61.8009 72.8187Z" fill="#E9F3FE"/>
<path d="M64.262 71.7544C64.0661 70.9704 64.5446 70.3348 65.3307 70.3348C66.1169 70.3348 66.9129 70.9704 67.109 71.7544C67.305 72.5385 66.8266 73.1741 66.0404 73.1741C65.2543 73.1741 64.4581 72.5385 64.262 71.7544Z" fill="#E9F3FE"/>
<path d="M125.333 164.188H109.061C108.905 162.919 108.768 161.579 108.644 160.18C108.426 157.672 108.259 154.973 108.135 152.166C108.105 151.519 108.079 150.866 108.056 150.208C108.025 149.371 107.998 148.524 107.974 147.673C107.934 146.227 107.903 144.765 107.88 143.294C107.879 143.293 107.878 143.291 107.879 143.289C107.85 141.414 107.836 139.526 107.832 137.645V137.644C107.831 137.174 107.83 136.705 107.83 136.237V136.235C107.83 135.794 107.832 135.356 107.833 134.917C107.847 130.869 107.908 126.898 107.995 123.206C108.182 115.036 108.486 108.229 108.647 104.957V104.955C108.712 103.612 108.755 102.865 108.755 102.865C108.755 102.865 108.758 102.867 108.759 102.867C108.796 102.872 109.043 102.917 109.431 103.011C109.716 103.08 110.078 103.175 110.489 103.301H110.49C110.862 103.412 111.272 103.55 111.703 103.713C111.703 103.713 111.704 103.713 111.705 103.713C111.706 103.713 111.706 103.714 111.707 103.714C112.493 104.011 113.251 104.376 113.973 104.806L114.007 104.823C115.222 105.575 116.319 106.572 116.82 107.889C117.25 109.007 118.255 115.019 119.47 123.003C119.504 123.23 119.538 123.459 119.573 123.691C120.216 127.931 120.91 132.688 121.608 137.545C122.347 142.693 123.086 147.95 123.765 152.822C124.345 157.001 124.882 160.894 125.333 164.188Z" fill="#3F3030"/>
<path d="M120.776 164.188H101.836C101.473 162.629 101.133 161.126 100.831 159.716C99.9985 155.83 99.4511 152.646 99.481 150.935C99.4785 150.575 99.552 150.219 99.6966 149.89C99.8412 149.56 100.054 149.265 100.32 149.023C100.717 148.672 101.178 148.401 101.677 148.224C103.275 147.619 105.571 147.52 107.974 147.673C108.791 147.723 109.619 147.803 110.436 147.902C113.36 148.275 116.259 148.828 119.116 149.558C119.116 149.558 119.395 150.685 119.726 152.655C119.974 154.132 120.25 156.087 120.456 158.394C120.575 159.735 120.671 161.196 120.725 162.752C120.74 163.22 120.757 163.7 120.776 164.188Z" fill="#3F3030"/>
<path d="M112.029 150.957L111.84 152.322L110.923 158.949L110.767 160.08L110.198 164.188H90.4603C90.3071 161.473 90.1654 158.827 90.1385 156.52C90.1356 156.264 90.1342 156.014 90.1342 155.768C90.1342 152.295 90.4404 149.72 91.4387 149.07C92.5701 148.332 96.3233 148.535 100.32 149.023C100.719 149.071 101.12 149.123 101.521 149.177C103.851 149.49 106.182 149.876 108.056 150.208C109.029 150.38 109.878 150.539 110.539 150.665C111.472 150.843 112.029 150.957 112.029 150.957Z" fill="#C65447"/>
<path d="M90.1339 106.282C90.1339 106.282 100.978 99.2896 108.755 102.866C109.995 103.436 111.409 105.026 112.421 106.138C115.232 109.228 120.726 158.307 120.726 158.307C120.726 158.307 105.131 163.575 90.1339 156.52V106.282Z" fill="white"/>
<path d="M109 103C109 103 119.978 107.487 121.464 110.934C122.951 114.381 127.784 135.553 127.784 138.035C127.784 140.518 119.37 138.591 118.015 134.587C116.89 131.262 113.096 121.048 111.096 114.587L109 103Z" fill="#3F3030"/>
<path d="M107.092 106.107C104.696 106.576 101.176 106.076 98.5982 104.382C99.7618 101.61 100.239 99.4218 100.409 98.0054C100.418 97.9305 100.426 97.8571 100.434 97.7866C100.498 97.3024 100.508 96.8124 100.463 96.3259H106.659C106.659 96.3259 108.353 97.0983 108.353 97.6322C108.353 97.9177 108.356 98.1908 108.361 98.4515C108.373 99.1621 108.402 99.7824 108.439 100.315C108.557 102.049 108.756 102.866 108.756 102.866C108.756 102.866 109.512 105.634 107.092 106.107Z" fill="#FFD5B7"/>
<path d="M108.438 100.315C103.745 101.22 101.02 98.6616 100.409 98.0054C100.322 97.9115 100.278 97.8555 100.278 97.8555C100.328 97.8305 100.379 97.8085 100.434 97.7863C102.181 97.0807 106.147 97.6417 108.36 98.4511C108.373 99.1621 108.401 99.7823 108.438 100.315Z" fill="#E2915A"/>
<path d="M98.8755 95.3103C99.7141 99.8124 105.539 99.6646 108.056 99.3816C108.765 99.303 109.21 99.2129 109.21 99.2129C110.009 99.0005 110.455 97.7453 110.662 96.1017C111.073 92.8489 110.554 88.0742 110.003 86.853C109.174 85.0154 107.612 83.028 101.746 84.4619C95.8798 85.8958 97.7992 89.5417 98.8755 95.3103Z" fill="#FFD5B7"/>
<path d="M110.221 84.3416C109.42 83.2346 107.72 81.882 106.176 81.0488C102.859 79.2593 98.6136 81.1052 98.5961 81.1129C93.8048 83.2139 92.5536 86.8699 95.0938 92.5649C97.7799 98.5874 100.338 97.9095 100.338 97.9095C100.338 97.9095 99.7947 97.5721 99.8438 95.6956C99.8467 95.5889 99.8509 95.4998 99.8563 95.4231C99.8719 95.233 99.844 95.0417 99.7748 94.8639C99.7056 94.686 99.5968 94.5261 99.4567 94.3962C98.8616 93.8665 98.5715 92.2643 99.0698 91.8182C99.6711 91.2802 100.516 91.9338 100.786 92.4365C100.837 92.5233 100.906 92.5986 100.988 92.6577C101.07 92.7169 101.163 92.7586 101.261 92.7803C101.36 92.802 101.462 92.8032 101.561 92.7839C101.66 92.7645 101.754 92.7251 101.838 92.6679C103.329 91.7277 102.36 89.8472 103.785 88.6967C105.21 87.5461 108.102 88.5122 110.239 87.5952C113.036 86.5556 110.825 85.1759 110.221 84.3416Z" fill="#3A2525"/>
<path d="M110.991 164.188H87.3802C87.5489 159.305 87.7659 153.474 87.9941 147.572C88.0523 146.042 88.1133 144.505 88.1728 142.98C88.1997 142.334 88.2238 141.692 88.2493 141.05C88.7711 127.942 89.2892 116.104 89.3978 115.466C89.646 114.024 89.8799 112.795 90.1337 111.729C90.8753 108.624 91.797 106.921 93.8074 105.456C94.0031 105.308 95.6115 104.5 97.0272 103.796C98.1842 103.223 99.2135 102.723 99.2447 102.709V102.707H99.246C99.4801 102.82 99.7382 103.146 100.01 103.628C100.336 104.233 100.621 104.859 100.862 105.502C101.941 108.266 103.107 112.497 103.916 115.658C103.918 115.661 103.919 115.664 103.919 115.668C103.92 115.669 103.921 115.671 103.921 115.673V115.675C104.442 117.715 104.817 119.303 104.923 119.76C105.104 120.53 105.342 122.019 105.624 124.035V124.041C106.006 126.791 106.461 130.523 106.943 134.758V134.76C106.993 135.195 107.042 135.635 107.092 136.079C107.149 136.587 107.206 137.1 107.265 137.619V137.62C107.283 137.787 107.302 137.954 107.319 138.121V138.122C107.505 139.8 107.692 141.529 107.877 143.29C107.877 143.292 107.878 143.294 107.879 143.295C108.038 144.746 110.244 145.797 110.397 147.274C110.408 147.382 110.42 147.599 110.434 147.902C110.462 148.527 110.497 149.519 110.537 150.666C110.554 151.176 110.573 151.718 110.593 152.27C110.679 154.728 110.786 157.421 110.906 158.716C110.912 158.777 110.917 158.854 110.922 158.949C110.936 159.208 110.947 159.588 110.957 160.066C110.978 161.081 110.988 162.533 110.991 164.188Z" fill="#3F3030"/>
<path d="M94.8848 120.751C94.8778 120.781 94.509 134.006 104.484 135.613C114.459 137.219 107.831 137.644 107.831 137.644C107.831 137.644 89.0638 136.848 88.7534 136.354C88.4429 135.86 94.8848 120.751 94.8848 120.751Z" fill="#3A2525"/>
<path d="M103.313 141.29C103.313 141.29 103.126 141.422 102.766 141.653C102.76 141.656 102.754 141.66 102.748 141.664C101.226 142.633 96.7091 145.274 90.1334 147.045C89.4432 147.232 88.7303 147.407 87.9947 147.572C88.0529 146.042 88.1137 144.505 88.1731 142.981C87.3425 142.92 86.5168 142.806 85.701 142.639C85.727 142.438 85.7544 142.237 85.7803 142.035C86.6167 141.693 87.4482 141.363 88.2499 141.05C88.903 140.796 89.5349 140.553 90.1334 140.328C92.8347 139.305 94.8371 138.612 94.8371 138.612L102.833 141.138L103.313 141.29Z" fill="#3A2525"/>
<path d="M105.429 141.069C105.429 141.069 104.402 141.325 102.766 141.653C102.76 141.653 102.754 141.655 102.749 141.657C99.7329 142.261 94.6625 143.109 90.133 143.063C89.4651 143.056 88.8084 143.03 88.1727 142.981C87.3421 142.92 86.5164 142.806 85.7006 142.639C84.0451 142.291 82.6586 141.701 81.7515 140.78C75.0143 133.936 85.428 109.372 87.6175 106.982C90.1739 104.192 94.8392 103.213 97.4154 102.877C97.5232 102.863 97.626 102.85 97.7264 102.837C98.6322 102.73 99.2134 102.708 99.2456 102.706H99.2468C99.2468 102.706 99.0449 103.354 98.7066 104.453C98.5752 104.877 98.4228 105.371 98.2556 105.921C96.6731 111.089 93.6201 121.246 92.2742 126.974C91.7811 129.071 91.5171 130.573 91.6374 131.022C92.1627 132.978 97.6062 133.984 101.055 134.429C102.493 134.614 103.585 134.702 103.829 134.721C103.846 134.721 103.863 134.722 103.88 134.724L104.079 135.54L104.557 137.496L105.026 139.418L105.429 141.069Z" fill="#3F3030"/>
<path d="M124.22 152.843L101.082 151.871L105.776 123.112L128.914 124.084L124.22 152.843Z" fill="white"/>
<path d="M103.88 134.724C103.88 134.724 108.384 134.411 108.61 135.458C109.137 137.899 104.738 139.903 103.313 139.766C101.888 139.629 102.844 134.561 103.88 134.724Z" fill="#FFD5B7"/>
<path d="M127.649 129.924C127.649 129.924 123.339 128.58 122.877 129.547C121.798 131.8 125.613 134.765 127.031 134.96C128.45 135.156 128.695 130.005 127.649 129.924Z" fill="#FFD5B7"/>
<path d="M99.7145 101.262C99.7145 101.262 97.8196 102.163 96.8697 103.522C96.8697 103.522 103.953 115.787 103.921 115.672C103.889 115.557 101.527 102.833 99.7145 101.262Z" fill="#3A2525"/>
<path d="M108.536 101.435C109.16 101.67 110.357 102.892 110.626 103.568L111.468 114.276C111.468 114.276 109.671 106.418 108.755 102.866C108.625 102.4 108.551 101.919 108.536 101.435Z" fill="#3A2525"/>
<path d="M113.446 123.435C113.446 123.435 113.629 122.637 114.682 122.73C115.735 122.822 121.652 123.113 121.652 123.113C121.652 123.113 122.794 123.094 122.688 123.823L113.446 123.435Z" fill="#111111"/>
<path d="M106.659 96.3259C106.939 96.5459 107.264 96.7029 107.61 96.7861C107.957 96.8693 108.317 96.8767 108.667 96.8079C109.401 96.6796 109.813 95.7265 109.813 95.7265C109.813 95.7265 108.4 95.4732 106.659 96.3259Z" fill="white"/>
<path d="M216.298 105.275L199.207 105.338L193.665 84.1763L210.756 84.1138L216.298 105.275Z" fill="white"/>
<path d="M206.517 86.8941L199.351 86.9205L199.269 86.6074L206.435 86.581L206.517 86.8941Z" fill="#3F3030"/>
<path d="M207.661 87.764L198.664 87.7971L198.582 87.484L207.579 87.4508L207.661 87.764Z" fill="#3F3030"/>
<path d="M210.135 92.0709L198.448 92.1139L198.366 91.8007L210.053 91.7578L210.135 92.0709Z" fill="#3F3030"/>
<path d="M210.405 93.1026L198.719 93.1455L198.636 92.8324L210.323 92.7893L210.405 93.1026Z" fill="#3F3030"/>
<path d="M210.676 94.1346L198.989 94.1776L198.907 93.8645L210.594 93.8215L210.676 94.1346Z" fill="#3F3030"/>
<path d="M210.946 95.1662L199.259 95.2093L199.177 94.8962L210.864 94.8532L210.946 95.1662Z" fill="#3F3030"/>
<path d="M211.216 96.198L199.529 96.2411L199.447 95.928L211.134 95.885L211.216 96.198Z" fill="#3F3030"/>
<path d="M211.874 98.709L200.187 98.7521L200.105 98.439L211.792 98.3959L211.874 98.709Z" fill="#3F3030"/>
<path d="M212.144 99.7407L200.457 99.7838L200.375 99.4707L212.062 99.4277L212.144 99.7407Z" fill="#3F3030"/>
<path d="M212.414 100.772L200.727 100.816L200.645 100.502L212.332 100.46L212.414 100.772Z" fill="#3F3030"/>
<path d="M212.684 101.804L200.997 101.847L200.916 101.534L212.602 101.491L212.684 101.804Z" fill="#3F3030"/>
<path d="M212.955 102.836L201.268 102.879L201.186 102.566L212.873 102.523L212.955 102.836Z" fill="#3F3030"/>
<path d="M223.185 131.571L206.094 131.634L200.552 110.472L217.643 110.409L223.185 131.571Z" fill="white"/>
<path d="M213.404 113.19L206.238 113.217L206.156 112.903L213.322 112.877L213.404 113.19Z" fill="#3F3030"/>
<path d="M214.548 114.06L205.551 114.093L205.469 113.78L214.466 113.747L214.548 114.06Z" fill="#3F3030"/>
<path d="M217.022 118.367L205.335 118.41L205.253 118.097L216.94 118.054L217.022 118.367Z" fill="#3F3030"/>
<path d="M217.292 119.399L205.606 119.442L205.524 119.129L217.21 119.086L217.292 119.399Z" fill="#3F3030"/>
<path d="M217.563 120.43L205.876 120.473L205.794 120.16L217.48 120.117L217.563 120.43Z" fill="#3F3030"/>
<path d="M217.833 121.462L206.146 121.505L206.064 121.192L217.751 121.149L217.833 121.462Z" fill="#3F3030"/>
<path d="M218.103 122.494L206.416 122.537L206.334 122.224L218.021 122.181L218.103 122.494Z" fill="#3F3030"/>
<path d="M218.761 125.005L207.074 125.048L206.992 124.735L218.679 124.692L218.761 125.005Z" fill="#3F3030"/>
<path d="M219.031 126.037L207.344 126.08L207.262 125.767L218.949 125.724L219.031 126.037Z" fill="#3F3030"/>
<path d="M219.301 127.068L207.615 127.112L207.533 126.798L219.219 126.755L219.301 127.068Z" fill="#3F3030"/>
<path d="M219.571 128.1L207.884 128.143L207.802 127.83L219.489 127.787L219.571 128.1Z" fill="#3F3030"/>
<path d="M219.842 129.133L208.155 129.176L208.073 128.863L219.76 128.819L219.842 129.133Z" fill="#3F3030"/>
<path d="M230.119 158.044L213.027 158.107L207.485 136.945L224.576 136.882L230.119 158.044Z" fill="white"/>
<path d="M220.337 139.663L213.171 139.689L213.089 139.376L220.255 139.35L220.337 139.663Z" fill="#3F3030"/>
<path d="M221.481 140.533L212.484 140.566L212.402 140.253L221.399 140.22L221.481 140.533Z" fill="#3F3030"/>
<path d="M223.955 144.84L212.269 144.883L212.187 144.569L223.873 144.526L223.955 144.84Z" fill="#3F3030"/>
<path d="M224.225 145.871L212.538 145.914L212.456 145.601L224.143 145.558L224.225 145.871Z" fill="#3F3030"/>
<path d="M224.496 146.903L212.809 146.946L212.727 146.633L224.414 146.59L224.496 146.903Z" fill="#3F3030"/>
<path d="M224.766 147.935L213.079 147.978L212.997 147.665L224.684 147.622L224.766 147.935Z" fill="#3F3030"/>
<path d="M225.036 148.967L213.35 149.01L213.267 148.697L224.954 148.654L225.036 148.967Z" fill="#3F3030"/>
<path d="M225.694 151.478L214.007 151.521L213.925 151.208L225.612 151.165L225.694 151.478Z" fill="#3F3030"/>
<path d="M225.964 152.509L214.277 152.553L214.195 152.239L225.882 152.196L225.964 152.509Z" fill="#3F3030"/>
<path d="M226.234 153.541L214.548 153.584L214.466 153.271L226.152 153.228L226.234 153.541Z" fill="#3F3030"/>
<path d="M226.505 154.573L214.818 154.616L214.736 154.303L226.423 154.26L226.505 154.573Z" fill="#3F3030"/>
<path d="M226.775 155.605L215.088 155.648L215.006 155.335L226.693 155.292L226.775 155.605Z" fill="#3F3030"/>
<path d="M207.646 158.222L147.868 158.443L130.664 92.7542L138.451 84.3912L188.26 84.2078L207.646 158.222Z" fill="white"/>
<path d="M171.794 95.3091L150.726 95.3867L150.485 94.4661L171.553 94.3885L171.794 95.3091Z" fill="#3F3030"/>
<path d="M175.158 97.8662L148.708 97.9635L148.467 97.043L174.917 96.9457L175.158 97.8662Z" fill="#3F3030"/>
<path d="M182.431 110.527L148.075 110.653L147.834 109.732L182.19 109.606L182.431 110.527Z" fill="#3F3030"/>
<path d="M183.225 113.56L148.869 113.686L148.628 112.766L182.984 112.639L183.225 113.56Z" fill="#3F3030"/>
<path d="M184.02 116.593L149.664 116.72L149.422 115.799L183.779 115.673L184.02 116.593Z" fill="#3F3030"/>
<path d="M184.814 119.626L150.458 119.753L150.217 118.832L184.573 118.706L184.814 119.626Z" fill="#3F3030"/>
<path d="M185.608 122.66L151.252 122.787L151.011 121.866L185.367 121.74L185.608 122.66Z" fill="#3F3030"/>
<path d="M187.542 130.041L153.186 130.168L152.945 129.247L187.301 129.12L187.542 130.041Z" fill="#3F3030"/>
<path d="M188.336 133.074L153.98 133.201L153.739 132.28L188.095 132.154L188.336 133.074Z" fill="#3F3030"/>
<path d="M189.131 136.108L154.775 136.234L154.533 135.313L188.89 135.187L189.131 136.108Z" fill="#3F3030"/>
<path d="M189.925 139.141L155.569 139.267L155.328 138.347L189.684 138.22L189.925 139.141Z" fill="#3F3030"/>
<path d="M190.719 142.174L156.363 142.301L156.122 141.38L190.478 141.254L190.719 142.174Z" fill="#3F3030"/>
<path d="M130.664 92.7542L140.632 92.7175L138.451 84.3912L130.664 92.7542Z" fill="#3F3030"/>
<path d="M225.979 192.598H274.799C275.702 192.598 276.595 192.776 277.429 193.12C278.263 193.465 279.021 193.969 279.659 194.606C280.297 195.242 280.803 195.998 281.148 196.829C281.494 197.661 281.672 198.552 281.672 199.452V202.731C281.672 203.651 281.49 204.563 281.137 205.413C280.783 206.264 280.266 207.036 279.613 207.687C278.96 208.338 278.186 208.854 277.333 209.207C276.48 209.559 275.566 209.74 274.643 209.74H225.979V192.598Z" fill="#FCECDB"/>
<path d="M323.209 199.651V202.23C323.209 203.216 323.014 204.193 322.636 205.104C322.257 206.015 321.703 206.843 321.003 207.541C320.304 208.238 319.474 208.791 318.56 209.168C317.646 209.546 316.667 209.74 315.678 209.739H224.487C224.198 209.739 223.92 209.625 223.715 209.421C223.51 209.217 223.395 208.94 223.395 208.651V208.265C223.395 208.122 223.423 207.98 223.478 207.848C223.533 207.716 223.614 207.596 223.715 207.495C223.817 207.394 223.937 207.314 224.069 207.259C224.202 207.204 224.344 207.176 224.487 207.176H280.076C281.108 205.923 281.672 204.351 281.671 202.73V199.452C281.673 197.891 281.139 196.377 280.157 195.162H224.487C224.344 195.162 224.202 195.134 224.069 195.079C223.937 195.024 223.816 194.944 223.715 194.843C223.613 194.742 223.533 194.622 223.478 194.489C223.423 194.357 223.395 194.215 223.395 194.072V193.687C223.395 193.544 223.423 193.402 223.478 193.27C223.533 193.138 223.613 193.018 223.715 192.917C223.816 192.816 223.937 192.735 224.069 192.681C224.202 192.626 224.344 192.598 224.487 192.598H316.137C317.066 192.597 317.986 192.779 318.844 193.133C319.702 193.488 320.482 194.007 321.139 194.662C321.796 195.317 322.317 196.095 322.672 196.951C323.027 197.807 323.209 198.724 323.209 199.651V199.651Z" fill="#322222"/>
<path d="M322.936 197.708H281.446C281.201 196.779 280.761 195.911 280.157 195.163H224.487C224.344 195.163 224.202 195.134 224.069 195.08C223.937 195.025 223.816 194.945 223.715 194.844C223.613 194.742 223.533 194.622 223.478 194.49C223.423 194.358 223.395 194.216 223.395 194.073V193.688C223.395 193.545 223.423 193.403 223.478 193.271C223.533 193.139 223.613 193.019 223.715 192.918C223.816 192.816 223.937 192.736 224.069 192.681C224.202 192.627 224.344 192.599 224.487 192.599H316.137C317.673 192.599 319.167 193.097 320.394 194.019C321.62 194.941 322.513 196.236 322.936 197.708Z" fill="#3F3030"/>
<path d="M225.979 201.169L232.731 201.457L225.979 201.631V201.169Z" fill="#F4D2B8"/>
<path d="M225.979 203.859L242.043 204.147L225.979 204.321V203.859Z" fill="#F4D2B8"/>
<path d="M289.39 223.037H237.585C235.756 223.037 234.003 222.313 232.71 221.023C231.417 219.734 230.69 217.985 230.69 216.161C230.69 214.449 231.373 212.806 232.587 211.595C233.801 210.385 235.448 209.704 237.165 209.704H289.39V223.037Z" fill="#322222"/>
<path d="M345.375 223.037H286.416C284.631 223.037 282.919 222.33 281.656 221.071C280.394 219.812 279.684 218.104 279.684 216.323V216.269C279.684 214.528 280.378 212.859 281.612 211.627C282.846 210.396 284.52 209.704 286.266 209.704H345.375V223.037Z" fill="#FCECDB"/>
<path d="M276 223.333H347.674C347.805 223.333 347.935 223.307 348.057 223.257C348.178 223.207 348.288 223.134 348.381 223.041C348.474 222.949 348.548 222.839 348.598 222.718C348.648 222.597 348.674 222.467 348.674 222.336C348.674 222.205 348.648 222.075 348.598 221.954C348.547 221.833 348.474 221.724 348.381 221.631C348.288 221.538 348.178 221.465 348.057 221.415C347.935 221.365 347.805 221.339 347.674 221.339H276C275.735 221.339 275.48 221.444 275.293 221.631C275.105 221.818 275 222.072 275 222.336C275 222.467 275.026 222.597 275.076 222.718C275.126 222.839 275.2 222.949 275.293 223.041C275.386 223.134 275.496 223.207 275.617 223.257C275.738 223.307 275.868 223.333 276 223.333Z" fill="#322222"/>
<path d="M276 211.994H347.674C347.939 211.994 348.193 211.889 348.381 211.702C348.568 211.515 348.674 211.261 348.674 210.997C348.674 210.866 348.648 210.736 348.598 210.615C348.547 210.494 348.474 210.385 348.381 210.292C348.288 210.199 348.178 210.126 348.057 210.076C347.935 210.026 347.805 210 347.674 210H276C275.735 210 275.48 210.105 275.293 210.292C275.105 210.479 275 210.733 275 210.997C275 211.128 275.026 211.258 275.076 211.379C275.126 211.499 275.2 211.609 275.293 211.702C275.386 211.795 275.496 211.868 275.617 211.918C275.738 211.968 275.868 211.994 276 211.994Z" fill="#322222"/>
<path d="M345.374 216.371L337.41 216.595L345.374 216.731V216.371Z" fill="#F4D2B8"/>
<path d="M345.375 213.302L326.427 213.526L345.375 213.661V213.302Z" fill="#F4D2B8"/>
<path d="M326.622 213.482C326.622 213.482 327.434 214.055 327.703 214.996C327.753 215.168 327.781 215.345 327.787 215.523C327.832 216.774 327.787 219.606 327.787 219.606L330.185 218.19L332.576 219.606V215.768C332.576 215.042 332.37 214.336 331.989 213.874C331.805 213.65 331.581 213.482 331.327 213.482H326.622Z" fill="black"/>
<path d="M326.622 213.482C326.622 213.482 327.434 214.055 327.703 214.996L332.507 215.052C332.507 215.052 332.319 213.704 331.327 213.482H326.622Z" fill="#281212"/>
<path d="M333.316 192.635H280.386C278.305 192.635 276.308 191.81 274.836 190.342C273.365 188.874 272.538 186.883 272.538 184.807V180.699C272.538 178.669 273.346 176.722 274.786 175.287C276.225 173.851 278.177 173.045 280.213 173.045H333.316V192.635Z" fill="#FCECDB"/>
<path d="M273.783 180.646V184.862C273.79 185.717 274.024 186.555 274.459 187.292C274.894 188.029 275.517 188.639 276.263 189.06C277.009 189.483 277.852 189.705 278.71 189.704H336.189C336.513 189.704 336.823 189.832 337.052 190.061C337.281 190.289 337.409 190.598 337.409 190.921V191.418C337.409 191.741 337.281 192.05 337.052 192.278C336.823 192.506 336.513 192.635 336.189 192.635H236.892C235.788 192.635 234.694 192.418 233.674 191.996C232.653 191.575 231.726 190.957 230.945 190.178C230.164 189.399 229.545 188.475 229.122 187.457C228.7 186.439 228.482 185.349 228.482 184.247V180.921C228.482 179.886 228.686 178.862 229.082 177.906C229.479 176.951 230.061 176.082 230.794 175.351C231.527 174.62 232.398 174.04 233.356 173.644C234.315 173.248 235.342 173.045 236.379 173.045H336.19C336.351 173.045 336.509 173.077 336.657 173.138C336.805 173.199 336.94 173.288 337.053 173.401C337.166 173.514 337.256 173.648 337.317 173.796C337.379 173.943 337.41 174.101 337.41 174.261V174.759C337.41 175.081 337.282 175.39 337.053 175.619C336.824 175.847 336.514 175.975 336.19 175.975H278.534C277.878 175.974 277.229 176.109 276.627 176.371C276.025 176.633 275.484 177.016 275.038 177.496C274.238 178.352 273.79 179.476 273.783 180.646Z" fill="black"/>
<path d="M333.316 182.84L325.948 183.169L333.316 183.368V182.84Z" fill="#F4D2B8"/>
<path d="M333.316 178.332L315.786 178.661L333.316 178.859V178.332Z" fill="#F4D2B8"/>
<path d="M315.966 178.595C315.966 178.595 317.123 179.217 317.506 180.238C317.576 180.42 317.617 180.613 317.626 180.809C317.69 182.165 317.626 185.236 317.626 185.236L321.042 183.7L324.449 185.236V181.075C324.449 180.288 324.156 179.523 323.613 179.021C323.364 178.765 323.027 178.613 322.67 178.596L315.966 178.595Z" fill="#111111"/>
<path d="M315.966 178.595C315.966 178.595 317.123 179.217 317.506 180.238L324.351 180.298C324.351 180.298 324.083 178.836 322.67 178.595H315.966Z" fill="black"/>
<path d="M281.307 165.782C284.336 171.041 288.147 173.07 288.147 173.07H304C304 173.07 278.996 161.77 281.307 165.782Z" fill="#705757"/>
<path d="M293.482 206.47C293.896 206.942 293.948 207.47 293.744 208.034C293.743 208.036 293.742 208.039 293.74 208.041C293.361 209.083 292.112 210.247 290.661 211.409C290.476 211.558 290.311 211.694 290.167 211.82C290.13 211.853 290.092 211.886 290.057 211.919C290.027 211.944 289.999 211.971 289.971 211.996C288.618 213.24 289.127 213.525 286.696 216.049C283.925 218.925 282.016 218.977 281.473 218.715C281.014 218.492 281.947 216.966 282.981 215.252C283.031 215.169 283.08 215.085 283.132 215.002C283.269 214.774 283.406 214.542 283.543 214.313C284.754 212.25 284.443 211.281 284.157 208.21C283.923 205.715 280.264 194.269 280.264 194.269L285.576 193.357C285.576 193.357 287.176 202.471 288.938 203.875C289.881 204.623 290.936 204.632 291.841 205.187C291.905 205.225 291.968 205.265 292.029 205.306C292.544 205.646 293.068 205.997 293.482 206.47Z" fill="#FFD5B7"/>
<path d="M293.482 206.47C293.896 206.942 293.948 207.47 293.744 208.034C293.743 208.036 293.742 208.039 293.74 208.041C293.277 209.082 292.059 210.24 290.656 211.398C290.473 211.55 290.311 211.689 290.168 211.82C290.13 211.853 290.093 211.886 290.057 211.919C290.028 211.944 289.999 211.971 289.971 211.996C288.618 213.24 289.128 213.525 286.697 216.049C283.925 218.925 282.017 218.977 281.474 218.715C281.014 218.492 281.948 216.966 282.982 215.252C284.921 214.497 286.625 213.244 287.922 211.621C289.591 209.496 290.704 206.767 291.841 205.186C291.905 205.225 291.968 205.265 292.029 205.305C292.544 205.646 293.068 205.997 293.482 206.47Z" fill="#322222"/>
<path d="M250.652 203.162C250.324 204.797 247.987 204.523 245.376 203.888C242.765 203.252 243.385 204.008 239.669 203.598C235.953 203.187 234.827 201.805 234.714 201.254C234.612 200.765 236.448 200.593 238.418 200.367C238.666 200.339 238.914 200.309 239.163 200.278C241.387 200 243.015 198.569 245.035 197.394C246.948 196.28 249.804 191.745 249.804 191.745L254.9 192.147C254.9 192.147 252.226 196.198 251.192 197.96C250.583 198.996 250.616 200.366 250.692 201.424C250.731 201.998 250.768 202.586 250.652 203.162Z" fill="#FFD5B7"/>
<path d="M245.376 203.888C242.765 203.251 243.385 204.008 239.669 203.597C235.953 203.187 234.827 201.805 234.714 201.254C234.612 200.765 236.448 200.593 238.418 200.367L238.436 200.405C240.029 201.424 241.868 201.993 243.758 202.054C246.28 202.115 248.95 201.395 250.691 201.423C250.731 201.998 250.768 202.586 250.652 203.161C250.324 204.797 247.987 204.524 245.376 203.888Z" fill="#322222"/>
<path d="M270.183 170.661L274.947 183.447L281.166 200.141C281.166 200.141 282.854 200.303 284.471 199.839C285.959 199.41 287.666 198.288 287.666 198.288C287.666 198.288 285.939 180.363 282.718 170.074C281.892 167.432 280.967 165.296 279.946 164.093C274.951 158.207 270.183 170.661 270.183 170.661Z" fill="#705757"/>
<path d="M275.026 150.356C278.148 149.352 287.05 150.641 295.992 152.387L297.865 149.307L317.18 147.802C317.18 147.802 323.554 161.899 320.064 170.881C319.552 172.201 318.532 173.048 316.795 173.076C316.795 173.077 316.514 173.075 316.513 173.076C316.513 173.077 305.017 173.069 301.284 173.069C291.678 173.069 280.955 166.485 279.568 166.207C277.297 165.754 276.389 170.283 274.118 175.039C271.847 179.794 252.775 196.099 252.775 196.099C252.775 196.099 249.843 196.128 248.632 195.675C247.33 195.188 246.853 194.555 246.853 194.555C246.853 194.555 267.988 152.62 275.026 150.356Z" fill="#3F3030"/>
<path d="M297.978 122.778C304.856 126.555 318.81 134.385 318.882 134.334C318.882 134.334 324.011 136.262 326.921 134.334C331.77 131.122 334.371 122.478 325.502 115.039C321.079 111.328 317.937 110.425 317.459 104.501C317.2 101.287 312.794 90.6797 305.475 91.6608C304.863 91.7428 301.099 91.9179 298.624 93.2139C292.319 96.5163 287.667 121.316 297.978 122.778Z" fill="#111111"/>
<path d="M303.743 119.563C303.713 119.582 307.127 120.745 309.41 119.736C311.558 118.79 313.185 115.265 313.154 115.263C312.176 115.218 311.104 114.366 310.278 108.776L309.862 108.925L302.866 111.436C302.866 111.436 303.373 113.674 303.701 115.806C303.977 117.595 304.125 119.31 303.743 119.563Z" fill="#FFD5B7"/>
<path d="M302.866 111.436C302.866 111.436 303.373 113.675 303.701 115.806C307.719 115.085 309.296 111.092 309.862 108.926L302.866 111.436Z" fill="#E2915A"/>
<path d="M301.825 113.658C301.825 113.658 311.395 112.377 310.504 106.445C309.612 100.512 310.247 96.3519 304.098 96.919C297.95 97.4861 297.105 99.927 296.92 101.979C296.735 104.032 299.312 113.838 301.825 113.658Z" fill="#FFD5B7"/>
<path d="M297.269 98.7275C297.269 98.7275 303.396 103.993 307.563 104.418C311.731 104.843 313.309 103.508 313.309 103.508C311.645 102.024 310.306 100.214 309.374 98.1915C309.162 97.7157 308.826 97.3051 308.401 97.0022C307.976 96.6993 307.478 96.5151 306.958 96.4687C303.982 96.2125 298.341 96.0956 297.269 98.7275Z" fill="#111111"/>
<path d="M301.099 98.2559C301.099 98.2559 299.049 100.232 298.404 101.698C297.781 103.113 297.594 106.496 298.09 107.841C298.09 107.841 294.897 101.648 296.705 98.6387C298.622 95.448 301.099 98.2559 301.099 98.2559Z" fill="#111111"/>
<path d="M295.684 133.624C295.973 152.946 295.763 148.909 297.883 150.742C298.393 151.183 299.829 151.447 301.718 151.571C307.659 151.964 318.102 150.988 318.499 149.893C319.87 146.105 318.902 144.928 320.046 139.127C320.165 138.51 320.312 137.843 320.485 137.116C321.438 133.132 322.366 131.776 318.984 125.376C315.918 119.579 312.732 114.873 312.445 115.043C304.353 119.833 303.701 115.807 303.701 115.807C303.701 115.807 295.542 124.199 295.684 133.624Z" fill="white"/>
<path d="M274.947 183.447L281.166 200.141C281.166 200.141 282.854 200.303 284.471 199.839C285.959 199.411 287.666 198.288 287.666 198.288C287.666 198.288 285.939 180.363 282.718 170.074L274.947 183.447Z" fill="#3F3030"/>
<path d="M303.701 115.806C303.701 115.806 295.375 117.214 294.398 120.789C293.42 124.364 287.667 145.381 287.667 145.381C287.667 145.381 291.899 146.139 293.855 144.189C295.81 142.239 300.658 126.096 300.658 126.096L303.701 115.806Z" fill="white"/>
<path d="M301.718 151.571C307.659 151.965 318.102 150.989 318.499 149.893C319.87 146.105 318.902 144.928 320.046 139.127L317.18 131.081C317.18 131.081 317.654 140.041 315.004 142.398C312.357 144.755 304.155 146.948 302.867 148.918C302.246 149.862 301.838 150.81 301.718 151.571Z" fill="#EBF3FF"/>
<path d="M308.525 147.802C308.525 147.802 302.664 146.501 301.718 147.02C300.773 147.538 298.461 149.428 298.172 150.085C297.883 150.742 300.277 149.586 301.056 149.378C301.561 149.243 302.889 149.702 303.546 149.921C306.312 150.841 308.007 150.368 308.007 150.368L308.525 147.802Z" fill="#FFD5B7"/>
<path d="M312.449 115.038C312.449 115.038 320.319 115.522 323.043 119.312C326.878 124.646 334.486 147.38 330.126 150.412C325.216 153.827 307.779 151.306 307.779 151.306C307.779 151.306 307.199 148.6 308.006 147.292C308.814 145.984 321.933 143.87 322.539 143.266C323.145 142.662 314.97 131.49 314.97 129.678C314.97 127.867 312.449 115.038 312.449 115.038Z" fill="white"/>
<path d="M301.434 148.647C301.434 148.647 300.207 150.226 299.804 150.415C299.601 150.525 299.371 150.574 299.141 150.557L299.969 149.071L301.434 148.647Z" fill="#FFD5B7"/>
<path d="M301.718 147.02L298.148 148.749C298.148 148.749 298.3 148.997 298.739 148.977C299.179 148.957 300.288 148.552 300.288 148.552L301.718 147.02Z" fill="#FFD5B7"/>
<path d="M299.804 152.835H271.561L263.065 131.764H291.264L299.804 152.835Z" fill="#111111"/>
<path d="M271.23 152.014H308.525V152.835H271.561L271.23 152.014Z" fill="#111111"/>
<path d="M278.69 142.3C278.477 141.559 278.907 140.959 279.649 140.959C280.392 140.959 281.167 141.559 281.38 142.3C281.593 143.04 281.163 143.641 280.421 143.641C279.678 143.641 278.903 143.04 278.69 142.3Z" fill="white"/>
<path d="M43.1508 161.11L42.5494 161.526C42.2404 161.739 41.8593 161.821 41.4897 161.754C41.1201 161.687 40.7921 161.477 40.5777 161.169L37.0797 156.136C36.866 155.828 36.7837 155.448 36.8507 155.079C36.9177 154.71 37.1286 154.383 37.4371 154.17L38.2986 153.574C38.359 153.532 38.4336 153.516 38.506 153.529C38.5783 153.542 38.6425 153.583 38.6844 153.644C38.7263 153.704 38.7424 153.778 38.7293 153.851C38.7162 153.923 38.6749 153.987 38.6144 154.028L37.753 154.624C37.5652 154.754 37.4368 154.953 37.3961 155.178C37.3553 155.402 37.4054 155.633 37.5355 155.821L41.0335 160.854C41.1639 161.042 41.3635 161.17 41.5885 161.21C41.8135 161.251 42.0454 161.201 42.2335 161.071L42.8348 160.655C43.0226 160.525 43.1509 160.326 43.1917 160.102C43.2325 159.877 43.1823 159.646 43.0523 159.459L40.7302 156.117C40.7095 156.087 40.6948 156.054 40.6871 156.018C40.6794 155.983 40.6787 155.946 40.6852 155.91C40.6917 155.875 40.7052 155.841 40.7249 155.81C40.7446 155.779 40.7702 155.753 40.8001 155.732C40.83 155.712 40.8638 155.697 40.8993 155.689C40.9349 155.682 40.9717 155.681 41.0075 155.688C41.0434 155.694 41.0776 155.707 41.1082 155.727C41.1388 155.747 41.1652 155.772 41.186 155.802L43.5081 159.143C43.7217 159.452 43.8041 159.832 43.7371 160.2C43.6701 160.569 43.4593 160.896 43.1508 161.11Z" fill="#887E7D"/>
<path d="M46.9855 166.074L45.9072 166.819C44.906 167.511 43.4867 167.204 42.7433 166.134L37.4841 158.567C37.4422 158.506 37.4261 158.432 37.4392 158.36C37.4523 158.288 37.4937 158.224 37.5541 158.182C37.6145 158.14 37.6891 158.124 37.7615 158.137C37.8338 158.15 37.898 158.191 37.9399 158.252L43.199 165.819C43.7683 166.638 44.8415 166.883 45.5912 166.365L46.6695 165.619C47.4194 165.101 47.5663 164.013 46.997 163.194L41.0066 154.574C40.4373 153.755 39.3641 153.51 38.6137 154.028C38.5837 154.049 38.55 154.064 38.5144 154.071C38.4789 154.079 38.4421 154.08 38.4063 154.073C38.3705 154.067 38.3363 154.053 38.3056 154.034C38.275 154.014 38.2486 153.989 38.2279 153.959C38.2071 153.929 38.1925 153.895 38.1848 153.86C38.1771 153.824 38.1764 153.788 38.1829 153.752C38.1894 153.716 38.2029 153.682 38.2226 153.651C38.2424 153.621 38.2679 153.595 38.2978 153.574C39.299 152.882 40.7183 153.189 41.4617 154.259L47.4521 162.879C48.1962 163.948 47.9866 165.382 46.9855 166.074Z" fill="#887E7D"/>
<path d="M54.2202 205.598L54.35 206.664C54.4159 207.211 54.2615 207.762 53.9207 208.196C53.5798 208.63 53.0803 208.911 52.5318 208.978L43.5634 210.064C43.0147 210.13 42.4623 209.976 42.0273 209.636C41.5923 209.296 41.3102 208.798 41.243 208.25L41.0572 206.724C41.05 206.67 41.0534 206.616 41.0674 206.564C41.0814 206.512 41.1056 206.463 41.1386 206.42C41.1717 206.378 41.2129 206.342 41.2599 206.315C41.3069 206.289 41.3587 206.272 41.4123 206.265C41.466 206.259 41.5204 206.263 41.5724 206.278C41.6244 206.292 41.673 206.317 41.7153 206.351C41.7576 206.384 41.7928 206.426 41.8189 206.473C41.8449 206.52 41.8613 206.572 41.867 206.626L42.0528 208.153C42.0937 208.486 42.2654 208.789 42.5302 208.996C42.7949 209.203 43.1312 209.296 43.4652 209.256L52.4334 208.171C52.7673 208.13 53.0713 207.959 53.2788 207.695C53.4862 207.431 53.5802 207.095 53.54 206.762L53.4104 205.696C53.3694 205.363 53.1978 205.06 52.933 204.853C52.6683 204.646 52.332 204.552 51.9981 204.592L46.0446 205.313C45.9372 205.326 45.829 205.296 45.7438 205.229C45.6587 205.163 45.6035 205.065 45.5905 204.958C45.5774 204.851 45.6076 204.743 45.6743 204.658C45.741 204.573 45.8389 204.518 45.9463 204.505L51.8997 203.785C52.4484 203.719 53.0009 203.873 53.4359 204.213C53.8709 204.553 54.153 205.051 54.2202 205.598Z" fill="#887E7D"/>
<path d="M63.3288 204.028L63.5613 205.939C63.7772 207.713 62.4022 209.345 60.4961 209.575L47.0131 211.207C46.9599 211.214 46.9059 211.209 46.8543 211.195C46.8027 211.181 46.7545 211.156 46.7123 211.123C46.6271 211.057 46.5719 210.959 46.5589 210.852C46.5459 210.745 46.576 210.637 46.6427 210.552C46.7095 210.467 46.8073 210.412 46.9147 210.399L60.3978 208.768C61.8572 208.591 62.9131 207.366 62.7515 206.037L62.5188 204.126C62.3572 202.797 61.0382 201.86 59.5787 202.037L44.2207 203.896C42.7612 204.072 41.7053 205.297 41.8671 206.626C41.8743 206.679 41.8708 206.734 41.8569 206.786C41.8429 206.838 41.8187 206.887 41.7856 206.929C41.7526 206.972 41.7114 207.008 41.6644 207.034C41.6174 207.061 41.5656 207.078 41.5119 207.084C41.4583 207.091 41.4039 207.087 41.3519 207.072C41.2999 207.057 41.2513 207.033 41.209 206.999C41.1667 206.966 41.1315 206.924 41.1054 206.877C41.0794 206.83 41.063 206.778 41.0572 206.724C40.8414 204.95 42.2163 203.319 44.1224 203.088L59.4805 201.229C61.3865 200.998 63.1128 202.254 63.3288 204.028Z" fill="#887E7D"/>
<path d="M209.494 79.3131C209.651 78.6467 209.238 77.9789 208.569 77.8215C207.901 77.6642 207.231 78.0769 207.074 78.7434C206.916 79.4098 207.33 80.0776 207.998 80.2349C208.666 80.3922 209.336 79.9795 209.494 79.3131Z" fill="#00284B"/>
</g>
<g clip-path="url(#clip2_16_8)">
<path d="M383.97 108.253C383.97 108.253 367.241 105.92 371.152 85.7983C371.152 85.7983 389.844 89.9761 383.97 108.253Z" fill="#3F3030"/>
<path opacity="0.1" d="M383.97 108.253C383.97 108.253 367.241 105.92 371.152 85.7983C371.152 85.7983 389.844 89.9761 383.97 108.253Z" fill="black"/>
<path d="M383.125 104.052C382.798 103.035 382.413 102.035 381.983 101.054C381.969 100.925 381.95 100.797 381.939 100.674C381.915 100.397 381.891 100.12 381.87 99.8395C381.823 99.2385 381.785 98.6376 381.749 98.0366C381.678 96.8355 381.6 95.6321 381.582 94.4279C381.582 94.4144 381.577 94.4015 381.567 94.3919C381.558 94.3824 381.545 94.377 381.531 94.377C381.518 94.377 381.505 94.3824 381.495 94.3919C381.485 94.4015 381.48 94.4144 381.48 94.4279C381.469 95.6328 381.452 96.8355 381.498 98.0397C381.522 98.6414 381.556 99.2423 381.597 99.8425C381.606 99.9761 381.616 100.11 381.625 100.243C380.689 98.2388 379.567 96.3255 378.275 94.528C377.7 93.7275 377.096 92.9581 376.447 92.2176C375.78 91.4588 375.076 90.7334 374.401 89.9799C374.358 89.9314 374.285 90.0065 374.33 90.0558C375.531 91.3804 376.611 92.8099 377.555 94.327C378.063 95.0933 378.545 95.8802 379.002 96.6792C378.95 96.6587 378.898 96.639 378.85 96.6177C378.652 96.5365 378.454 96.4546 378.253 96.3779C377.796 96.2034 377.341 96.0317 376.888 95.8627C375.99 95.5311 375.091 95.2041 374.196 94.8657C374.143 94.8452 374.106 94.9416 374.16 94.9598C375.048 95.3126 375.929 95.6859 376.809 96.0646C377.24 96.2497 377.671 96.4348 378.103 96.62C378.319 96.7126 378.538 96.7998 378.757 96.8878C378.898 96.9569 379.047 97.0094 379.2 97.0442C379.537 97.6474 379.872 98.2529 380.179 98.8713C380.957 100.43 381.639 102.033 382.224 103.673L382.344 104.019C381.905 103.765 381.447 103.544 380.974 103.36C380.398 103.095 379.818 102.838 379.242 102.574C378.069 102.037 376.903 101.492 375.779 100.859C375.767 100.853 375.753 100.851 375.74 100.855C375.727 100.859 375.716 100.868 375.709 100.879C375.703 100.891 375.701 100.905 375.705 100.918C375.709 100.931 375.717 100.942 375.729 100.949C376.879 101.574 378.005 102.239 379.156 102.862C379.731 103.174 380.31 103.476 380.9 103.761C381.388 104.05 381.918 104.262 382.472 104.388C383.03 105.913 383.398 107.501 383.568 109.116C383.754 111.392 383.734 113.685 383.787 115.966C383.787 116.006 383.845 116.002 383.848 115.966C384.015 113.897 384.108 111.808 384.117 109.732C384.093 107.798 383.758 105.881 383.125 104.052Z" fill="#263238"/>
<path d="M380.549 92.2198C380.388 93.3955 380.332 94.5831 380.383 95.7686C380.384 95.7746 380.387 95.7801 380.391 95.784C380.396 95.7879 380.402 95.79 380.408 95.79C380.414 95.79 380.42 95.7879 380.425 95.784C380.429 95.7801 380.433 95.7746 380.434 95.7686C380.501 94.5918 380.51 93.4164 380.648 92.2464C380.658 92.1766 380.556 92.1553 380.549 92.2198Z" fill="#263238"/>
<path d="M375.766 93.2275C375.018 92.9436 374.297 92.591 373.614 92.1743C373.56 92.1379 373.509 92.2282 373.565 92.2631C374.234 92.7126 374.966 93.0611 375.738 93.2973C375.779 93.3087 375.806 93.2442 375.766 93.2275Z" fill="#263238"/>
<path d="M384.505 140.197C384.491 138.356 384.456 136.514 384.435 134.672C384.4 128.555 384.35 122.438 384.239 116.322C384.152 111.465 384.038 106.609 383.899 101.753C383.898 101.74 383.893 101.727 383.886 101.716C383.878 101.705 383.868 101.697 383.856 101.691C383.849 100.365 383.842 99.0385 383.836 97.7126C383.836 97.6793 383.795 97.6633 383.756 97.6641C383.716 97.6648 383.675 97.6815 383.679 97.7157L383.654 101.7C383.644 101.706 383.635 101.714 383.628 101.724C383.622 101.734 383.618 101.746 383.616 101.758C383.37 110.4 383.15 119.044 383.099 127.688C383.088 129.445 383.09 131.203 383.082 132.96C383.023 138.596 383.001 144.232 383.018 149.868C383.012 150.765 383 151.662 382.997 152.559C382.979 157.719 383.051 162.872 383.053 168.028C383.053 168.306 383.362 168.444 383.691 168.457C384.066 168.472 384.466 168.322 384.465 168.006C384.465 162.32 384.505 156.633 384.504 150.947C384.519 147.366 384.532 143.781 384.505 140.197Z" fill="#263238"/>
<path d="M377.518 134.602C377.518 134.602 369.471 128.662 361.834 132.675C354.197 136.688 353 152.16 353 152.16C353 152.16 364.214 153.758 371.278 147.061C378.082 140.608 377.518 134.602 377.518 134.602Z" fill="#3F3030"/>
<path d="M379.712 134.972C378.232 134.389 376.63 134.18 375.05 134.365C374.724 134.309 374.394 134.276 374.064 134.268C373.683 134.242 373.308 134.213 372.93 134.184C372.148 134.123 371.365 134.076 370.583 134.019C368.996 133.9 367.404 133.803 365.82 133.645C365.763 133.639 365.752 133.738 365.809 133.745C367.376 133.944 368.938 134.167 370.51 134.325C371.319 134.406 372.128 134.49 372.939 134.548C373.129 134.561 373.327 134.582 373.528 134.604C373.287 134.658 373.048 134.714 372.813 134.781C371.55 135.146 370.328 135.641 369.167 136.258C368.533 136.371 367.903 136.548 367.281 136.693C366.286 136.927 365.294 137.183 364.305 137.441C362.351 137.951 360.421 138.525 358.479 139.087C358.467 139.092 358.457 139.101 358.452 139.112C358.446 139.124 358.445 139.137 358.448 139.149C358.452 139.161 358.46 139.172 358.471 139.178C358.482 139.185 358.495 139.187 358.508 139.184C360.446 138.711 362.392 138.274 364.335 137.819C365.278 137.591 366.223 137.374 367.165 137.143C367.408 137.083 367.656 137.028 367.904 136.973C365.742 138.306 363.81 139.979 362.185 141.927C360.614 143.843 359.28 145.94 358.21 148.173C358.182 148.231 358.263 148.286 358.296 148.227C359.617 145.931 361.234 143.816 363.106 141.937C363.071 142.044 363.035 142.15 363.001 142.257C362.849 142.729 362.703 143.202 362.554 143.674C362.256 144.618 361.955 145.561 361.671 146.51C361.652 146.573 361.748 146.595 361.77 146.535C362.109 145.62 362.431 144.698 362.756 143.779L363.233 142.424C363.316 142.191 363.396 141.955 363.475 141.721C363.499 141.645 363.527 141.577 363.551 141.505C364.447 140.636 365.401 139.826 366.405 139.082C367.732 138.109 369.167 137.29 370.682 136.641C370.653 136.78 370.628 136.919 370.599 137.051C370.523 137.417 370.439 137.782 370.363 138.148C370.206 138.907 370.059 139.665 369.906 140.429C369.602 141.98 369.415 143.551 369.123 145.104C369.111 145.167 369.207 145.192 369.222 145.129C369.583 143.568 370.048 142.033 370.398 140.468C370.572 139.687 370.749 138.904 370.912 138.121C370.988 137.754 371.064 137.387 371.135 137.02C371.177 136.816 371.225 136.612 371.248 136.407C371.395 136.349 371.538 136.282 371.685 136.227C373.793 135.327 376.107 135.012 378.38 135.317C379.445 135.515 380.444 135.972 381.289 136.647C382.134 137.322 382.799 138.194 383.224 139.187C383.3 139.361 383.573 139.253 383.529 139.074C383.26 138.14 382.774 137.282 382.111 136.569C381.448 135.857 380.626 135.309 379.712 134.972Z" fill="#263238"/>
<path d="M367.393 141.573C367.166 142.589 366.939 143.605 366.714 144.621C366.46 145.596 366.273 146.586 366.152 147.586C366.152 147.625 366.206 147.625 366.217 147.592C366.513 146.614 366.741 145.616 366.903 144.607C367.101 143.604 367.298 142.601 367.494 141.598C367.504 141.536 367.407 141.511 367.393 141.573Z" fill="#263238"/>
<path d="M359.611 144.157C358.586 144.675 357.592 145.264 356.522 145.688C356.515 145.69 356.509 145.694 356.504 145.698C356.498 145.703 356.494 145.709 356.491 145.716C356.488 145.722 356.486 145.729 356.486 145.737C356.486 145.744 356.488 145.751 356.491 145.758C356.494 145.764 356.498 145.77 356.504 145.775C356.509 145.779 356.516 145.783 356.523 145.785C356.529 145.787 356.537 145.788 356.544 145.787C356.551 145.786 356.558 145.783 356.564 145.78C357.615 145.306 358.64 144.777 359.635 144.196C359.64 144.193 359.644 144.188 359.645 144.182C359.646 144.176 359.645 144.17 359.642 144.165C359.639 144.16 359.634 144.156 359.628 144.155C359.622 144.153 359.616 144.154 359.611 144.157Z" fill="#263238"/>
<path d="M379.327 123.693C379.327 123.693 369.493 124.318 364.918 117.857C360.343 111.395 361.37 102.168 361.37 102.168C361.37 102.168 371.701 103.419 375.802 108.059C379.904 112.698 379.327 123.693 379.327 123.693Z" fill="#3F3030"/>
<path d="M383.943 133.362C383.603 132.311 383.181 131.277 382.783 130.251C382.402 129.261 381.994 128.283 381.56 127.315C380.68 125.34 379.696 123.413 378.612 121.542C377.918 120.352 377.174 119.196 376.409 118.056C376.393 117.882 376.358 117.709 376.333 117.535C376.287 117.231 376.243 116.928 376.195 116.624C376.098 116.004 375.989 115.385 375.885 114.766C375.656 113.413 375.378 112.069 375.163 110.714C375.152 110.651 375.051 110.652 375.061 110.714C375.259 112.051 375.394 113.397 375.582 114.736C375.674 115.394 375.76 116.052 375.86 116.709C375.897 116.945 375.937 117.183 375.972 117.42C374.47 115.235 372.846 113.136 371.107 111.132C370.872 110.862 370.629 110.601 370.389 110.332C370.365 110.256 370.328 110.184 370.298 110.108C370.222 109.921 370.154 109.735 370.085 109.547C369.94 109.158 369.799 108.768 369.658 108.378C369.382 107.611 369.135 106.837 368.925 106.049C368.909 105.985 368.812 106.014 368.828 106.077C369.027 106.882 369.236 107.685 369.472 108.479C369.586 108.863 369.713 109.242 369.848 109.617C369.871 109.68 369.895 109.743 369.919 109.806C368.661 108.44 367.35 107.125 366.025 105.825C365.979 105.779 365.91 105.852 365.955 105.901C368.497 108.55 370.827 111.393 372.924 114.405C372.685 114.329 372.442 114.268 372.196 114.221C371.439 114.075 370.673 113.968 369.911 113.871C368.312 113.668 366.712 113.466 365.113 113.215C365.049 113.205 365.024 113.302 365.089 113.314C366.612 113.614 368.123 113.956 369.636 114.3C370.35 114.463 371.067 114.604 371.786 114.744C372.371 114.87 372.948 115.034 373.512 115.234C373.671 115.462 373.836 115.684 373.993 115.912C374.715 116.959 375.407 118.027 376.086 119.103C375.751 119.037 375.416 118.973 375.082 118.908C374.32 118.761 373.559 118.625 372.797 118.499C371.298 118.253 369.796 117.993 368.314 117.657C368.25 117.643 368.225 117.741 368.289 117.756C369.793 118.107 371.283 118.518 372.776 118.914C373.496 119.105 374.223 119.28 374.95 119.44C375.314 119.521 375.678 119.601 376.043 119.675C376.188 119.713 376.336 119.739 376.486 119.751C377.922 122.072 379.266 124.446 380.518 126.872C381.068 127.938 381.597 129.013 382.107 130.099C382.632 131.211 383.082 132.348 383.568 133.477C383.664 133.701 384.023 133.606 383.943 133.362Z" fill="#263238"/>
<path d="M373.88 110.843C373.693 109.908 373.495 108.975 373.287 108.045C373.272 107.981 373.176 108.011 373.189 108.075C373.375 108.993 373.553 109.913 373.723 110.834C373.862 111.758 374.048 112.675 374.281 113.58C374.282 113.584 374.284 113.587 374.287 113.589C374.291 113.59 374.294 113.591 374.298 113.59C374.302 113.59 374.305 113.588 374.307 113.585C374.309 113.582 374.311 113.579 374.31 113.575C374.233 112.655 374.089 111.742 373.88 110.843Z" fill="#263238"/>
<path d="M368.14 110.569C367.683 110.342 367.202 110.16 366.727 109.976C366.478 109.88 366.229 109.784 365.981 109.685L365.6 109.534C365.455 109.491 365.315 109.43 365.185 109.352C365.109 109.297 365.063 109.428 365.137 109.439C365.284 109.478 365.425 109.536 365.558 109.61L365.93 109.776C366.169 109.882 366.408 109.989 366.648 110.094C367.121 110.313 367.606 110.504 368.101 110.667C368.113 110.671 368.127 110.669 368.138 110.664C368.15 110.658 368.159 110.648 368.164 110.636C368.169 110.624 368.169 110.61 368.165 110.598C368.161 110.586 368.152 110.576 368.14 110.569Z" fill="#263238"/>
<path d="M389.394 115.989C389.394 115.989 395.347 104.91 404.402 103.196C413.457 101.482 418.999 110.763 418.999 110.763C418.999 110.763 412.394 119.166 404.085 120.631C395.775 122.095 389.394 115.989 389.394 115.989Z" fill="#3F3030"/>
<path d="M410.47 108.16C408.111 107.845 405.719 107.873 403.369 108.244C403.504 108.169 403.639 108.093 403.772 108.029C404.445 107.689 405.113 107.346 405.781 106.998C407.171 106.277 408.577 105.51 410.032 104.929C410.039 104.927 410.045 104.923 410.051 104.919C410.056 104.914 410.06 104.908 410.063 104.902C410.066 104.895 410.067 104.888 410.067 104.881C410.067 104.874 410.066 104.867 410.063 104.861C410.06 104.854 410.056 104.848 410.051 104.844C410.045 104.839 410.039 104.835 410.032 104.833C410.026 104.831 410.018 104.83 410.011 104.831C410.004 104.831 409.997 104.833 409.991 104.837C408.575 105.495 407.106 106.046 405.685 106.697C404.975 107.022 404.276 107.361 403.585 107.726C403.138 107.962 402.643 108.185 402.204 108.467C400.215 108.867 398.283 109.507 396.449 110.372C396.827 109.963 397.204 109.553 397.581 109.144C398.425 108.223 399.257 107.257 400.182 106.418C400.231 106.374 400.157 106.304 400.106 106.348C399.158 107.206 398.158 107.999 397.239 108.891C396.793 109.323 396.367 109.772 395.951 110.233C395.744 110.461 395.536 110.701 395.342 110.946C392.232 112.606 389.531 114.931 387.432 117.755C385.333 120.579 383.888 123.832 383.202 127.278C383.189 127.341 383.278 127.376 383.299 127.312C384.574 123.09 386.858 119.238 389.955 116.089C393.285 112.702 397.479 110.285 402.086 109.096C404.819 108.402 407.645 108.146 410.458 108.337C410.481 108.337 410.502 108.328 410.519 108.313C410.535 108.298 410.545 108.276 410.547 108.254C410.548 108.231 410.541 108.209 410.527 108.192C410.512 108.175 410.492 108.163 410.47 108.16Z" fill="#263238"/>
<path opacity="0.1" d="M419 110.767C419 110.767 412.394 119.172 404.082 120.636C397.744 121.756 392.53 118.461 390.413 116.842L389.956 116.093C389.956 116.093 394.242 112.494 402.35 110.417C410.459 108.34 419 110.767 419 110.767Z" fill="black"/>
<path d="M405.211 104.211C404.518 104.615 403.847 105.056 403.201 105.531C402.569 106.007 401.983 106.541 401.449 107.125C401.441 107.135 401.436 107.148 401.437 107.161C401.438 107.175 401.443 107.188 401.453 107.197C401.462 107.207 401.475 107.212 401.489 107.213C401.502 107.213 401.515 107.209 401.526 107.2C402.126 106.68 402.731 106.159 403.353 105.667C403.959 105.173 404.595 104.717 405.257 104.301C405.268 104.294 405.277 104.284 405.28 104.271C405.284 104.259 405.283 104.246 405.277 104.234C405.271 104.223 405.261 104.214 405.248 104.21C405.236 104.205 405.223 104.206 405.211 104.211Z" fill="#263238"/>
<path d="M410.18 106.086C409.844 106.225 409.502 106.346 409.166 106.485L408.159 106.901C408.083 106.931 408.121 107.048 408.194 107.018L409.205 106.61C409.542 106.473 409.872 106.319 410.21 106.184C410.27 106.159 410.24 106.062 410.18 106.086Z" fill="#263238"/>
<path d="M388.206 129.929C388.206 129.929 389.797 140.917 398.09 144.761C406.383 148.605 416.494 144.761 416.494 144.761C416.494 144.761 412.517 120.987 388.206 129.929Z" fill="#3F3030"/>
<path d="M410.78 137.613C410.018 137.526 409.256 137.397 408.495 137.259C408.123 137.191 407.752 137.121 407.381 137.048C407.192 137.012 406.995 136.967 406.798 136.932C406.575 136.725 406.356 136.514 406.126 136.313C404.554 134.937 402.856 133.71 401.054 132.65C400.073 132.071 399.058 131.552 398.015 131.094C398.066 131.094 398.118 131.099 398.171 131.1C399.081 131.14 399.99 131.176 400.9 131.219C402.721 131.303 404.541 131.343 406.36 131.46C406.426 131.465 406.423 131.363 406.36 131.358C404.532 131.235 402.718 131.035 400.895 130.879C400.011 130.803 399.126 130.725 398.242 130.644C397.785 130.603 397.329 130.568 396.876 130.525C396.76 130.515 396.643 130.501 396.527 130.488C396.054 130.312 395.577 130.146 395.095 129.997C392.834 129.224 390.403 129.091 388.071 129.611C385.984 130.142 383.902 131.508 383.362 133.697C383.343 133.773 383.462 133.825 383.494 133.749C384.272 131.917 386.312 130.996 388.153 130.615C389.392 130.377 390.662 130.351 391.909 130.539C391.995 131.105 392.135 131.661 392.327 132.2C392.556 132.973 392.784 133.747 393.019 134.519C393.489 136.062 394.009 137.59 394.466 139.137C394.47 139.148 394.479 139.158 394.491 139.164C394.502 139.169 394.516 139.17 394.528 139.167C394.54 139.163 394.55 139.155 394.557 139.144C394.564 139.133 394.566 139.12 394.563 139.108C394.179 137.566 393.853 136.009 393.48 134.464C393.297 133.705 393.106 132.946 392.917 132.188C392.81 131.659 392.671 131.138 392.499 130.626C393.226 130.754 393.944 130.923 394.652 131.131C395.932 131.509 397.188 131.967 398.41 132.503C398.531 133.286 398.707 134.063 398.887 134.835C399.116 135.806 399.367 136.766 399.675 137.714C399.68 137.725 399.688 137.734 399.699 137.74C399.71 137.745 399.723 137.746 399.734 137.742C399.746 137.739 399.756 137.731 399.762 137.72C399.768 137.71 399.77 137.698 399.768 137.686L399.731 137.507C399.545 136.608 399.351 135.712 399.156 134.815C399.004 134.091 398.862 133.364 398.705 132.641C399.734 133.102 400.747 133.607 401.727 134.167C401.747 134.394 401.804 134.622 401.835 134.824C401.894 135.203 401.963 135.576 402.032 135.951C402.189 136.799 402.358 137.644 402.565 138.482C402.939 140.103 403.415 141.7 403.991 143.262C403.984 143.271 403.98 143.283 403.98 143.294C403.98 143.306 403.984 143.317 403.991 143.327L404.038 143.381C404.074 143.423 404.132 143.374 404.122 143.33C403.741 141.701 403.3 140.087 402.941 138.452C402.762 137.637 402.581 136.82 402.417 136.001C402.334 135.592 402.26 135.181 402.181 134.771C402.16 134.656 402.142 134.53 402.124 134.403C405.17 136.192 407.926 138.432 410.297 141.046C410.356 141.112 410.473 141.018 410.419 140.947C409.8 140.113 409.139 139.312 408.438 138.545C408.021 138.099 407.589 137.669 407.144 137.247L407.282 137.272C407.67 137.337 408.059 137.395 408.45 137.446C409.217 137.548 409.986 137.624 410.755 137.711C410.817 137.719 410.845 137.621 410.78 137.613Z" fill="#263238"/>
<path d="M404.953 141.339C404.94 141.243 404.924 141.148 404.905 141.054C404.882 140.932 404.822 140.816 404.805 140.694V140.691C404.634 139.956 404.49 139.217 404.357 138.473C404.347 138.422 404.265 138.437 404.267 138.488C404.318 139.472 404.531 140.441 404.898 141.356C404.909 141.386 404.961 141.383 404.956 141.347L404.953 141.339Z" fill="#263238"/>
<path d="M398.01 141.163C398.009 141.15 398.004 141.138 397.995 141.13C397.985 141.121 397.973 141.116 397.961 141.116C397.728 140.143 397.504 139.169 397.303 138.19C397.197 137.674 397.089 137.16 396.99 136.644C396.936 136.366 396.885 136.088 396.837 135.809C396.815 135.564 396.754 135.323 396.659 135.095C396.654 135.087 396.646 135.08 396.637 135.076C396.628 135.072 396.618 135.07 396.608 135.072C396.598 135.073 396.589 135.078 396.581 135.085C396.574 135.091 396.569 135.1 396.566 135.11C396.558 135.609 396.628 136.106 396.774 136.584C396.875 137.121 396.98 137.657 397.098 138.19C397.339 139.273 397.612 140.354 397.919 141.421C397.923 141.433 397.932 141.443 397.943 141.45C397.955 141.456 397.968 141.459 397.981 141.456C397.994 141.454 398.006 141.448 398.015 141.438C398.023 141.429 398.028 141.416 398.029 141.403L398.01 141.163Z" fill="#263238"/>
<path d="M410.023 134.448C408.509 134.242 406.995 134.023 405.477 133.841C405.413 133.834 405.388 133.931 405.453 133.94C406.966 134.163 408.483 134.35 409.999 134.548C410.063 134.555 410.089 134.457 410.023 134.448Z" fill="#263238"/>
<path d="M383.957 104.158C383.957 104.158 378.884 81.9763 402.804 73C402.804 73 409.432 102.198 383.957 104.158Z" fill="#3F3030"/>
<path d="M389.122 91.5779C389.212 91.521 389.298 91.4664 389.378 91.4224C389.831 91.1743 390.279 90.9208 390.73 90.6697L393.505 89.1233C395.332 88.1058 397.133 87.048 398.971 86.0518C399.028 86.0206 398.971 85.9341 398.917 85.9653C397.076 86.963 395.202 87.8971 393.349 88.8729L390.608 90.3146L389.488 90.9041C390.285 89.3964 391.138 87.9183 392.077 86.4949C393.327 84.5979 394.697 82.7852 396.124 81.0135C396.139 80.9978 396.147 80.9768 396.146 80.9553C396.145 80.9337 396.136 80.9133 396.12 80.8985C396.105 80.8837 396.083 80.8758 396.062 80.8764C396.04 80.877 396.02 80.8862 396.005 80.9019C393.907 82.9334 392.051 85.1994 390.474 87.6551C390.474 87.5792 390.474 87.4987 390.482 87.4274C390.509 86.8758 390.523 86.3242 390.531 85.771C390.547 84.689 390.495 83.6047 390.528 82.5234C390.528 82.4574 390.429 82.4605 390.426 82.5234C390.381 83.5857 390.253 84.648 390.192 85.7164C390.161 86.2485 390.138 86.7797 390.122 87.3098C390.114 87.5974 390.087 87.9252 390.097 88.2401C389.605 89.0206 389.134 89.8128 388.684 90.6166C387.882 92.0616 387.168 93.5532 386.546 95.0835C386.522 94.5311 386.488 93.9795 386.455 93.4271C386.384 92.213 386.235 91.0035 386.184 89.7849C386.184 89.7715 386.179 89.7585 386.169 89.749C386.16 89.7395 386.147 89.7341 386.133 89.7341C386.12 89.7341 386.107 89.7395 386.097 89.749C386.088 89.7585 386.082 89.7715 386.082 89.7849C386.107 90.999 386.051 92.213 386.089 93.4271C386.107 94.0341 386.126 94.6411 386.165 95.2481C386.181 95.4712 386.192 95.6981 386.207 95.9257C385.445 97.9071 384.841 99.9451 384.401 102.021C383.989 104.237 383.691 106.473 383.51 108.719C383.51 108.736 383.533 108.735 383.536 108.719C383.789 106.697 384.213 104.699 384.805 102.747C385.101 101.7 385.414 100.658 385.749 99.6248C386.745 99.1581 387.698 98.5754 388.659 98.0442C389.657 97.4934 390.661 96.9546 391.662 96.4083C393.656 95.3179 395.648 94.2079 397.709 93.2442C397.768 93.2161 397.713 93.1312 397.654 93.1577C395.568 94.0986 393.466 94.9939 391.419 96.0183C390.4 96.529 389.397 97.0738 388.404 97.6322C387.573 98.0981 386.719 98.5648 385.925 99.1012C386.158 98.4107 386.4 97.7233 386.664 97.0442C387.391 95.1821 388.211 93.3577 389.122 91.5779Z" fill="#263238"/>
<path d="M387.105 86.507C387.1 86.4418 386.998 86.4433 387.003 86.507C387.089 87.7719 387.132 89.0375 387.266 90.3009C387.274 90.3715 387.381 90.3715 387.378 90.3009C387.334 89.03 387.198 87.7719 387.105 86.507Z" fill="#263238"/>
<path d="M398.574 90.7425C397.076 91.3435 395.565 91.9133 394.076 92.5347C394.035 92.5522 394.053 92.6197 394.096 92.603C395.608 92.0393 397.099 91.4247 398.603 90.8404C398.664 90.8161 398.632 90.7182 398.574 90.7425Z" fill="#263238"/>
<path d="M400.847 80.5119C399.384 81.1832 397.963 81.9434 396.593 82.7882C396.579 82.7974 396.569 82.8115 396.566 82.8276C396.562 82.8438 396.565 82.8607 396.574 82.8748C396.582 82.8889 396.596 82.899 396.612 82.9031C396.628 82.9072 396.645 82.9049 396.66 82.8967C398.047 82.0879 399.46 81.3124 400.9 80.6014C400.96 80.5673 400.906 80.4853 400.847 80.5119Z" fill="#263238"/>
<path d="M400.486 152.125H365.988V188.354H400.486V152.125Z" fill="#455A64"/>
<path d="M365.379 164.944H363.614V226.999H365.379V164.944Z" fill="#263238"/>
<path d="M402.674 164.944H400.909V226.999H402.674V164.944Z" fill="#263238"/>
<path d="M384.966 164.944H383.2V226.999H384.966V164.944Z" fill="#263238"/>
<path d="M401.792 186.031H364.497V191.048H401.792V186.031Z" fill="#263238"/>
</g>
<defs>
<clipPath id="clip0_16_8">
<rect width="31.9864" height="31.9864" fill="white" transform="translate(235.255 51.5909)"/>
</clipPath>
<clipPath id="clip1_16_8">
<rect width="365.264" height="190.886" fill="white" transform="translate(11.35 33.0182)"/>
</clipPath>
<clipPath id="clip2_16_8">
<rect width="66" height="154" fill="white" transform="translate(353 73)"/>
</clipPath>
</defs>
</svg>
