<svg width="51" height="40" viewBox="0 0 51 40" fill="none" xmlns="http://www.w3.org/2000/svg">
<g clip-path="url(#clip0_1_406)">
<path d="M50.6606 30C50.6606 32.7578 48.4158 35 45.6549 35H25.6321V5H45.6549C48.4158 5 50.6606 7.23828 50.6606 10V30ZM39.7106 14.375C39.7106 13.4453 39.0067 12.8125 38.1463 12.8125C37.2156 12.8125 36.5821 13.4453 36.5821 14.375V14.6875H32.5149C31.5842 14.6875 30.9507 15.3203 30.9507 16.25C30.9507 17.1094 31.5842 17.8125 32.5149 17.8125H40.8916C40.3207 19.1172 39.5307 20.3047 38.5609 21.2578L38.5139 21.2812L37.372 20.1484C36.762 19.5312 35.7765 19.5312 35.1664 20.1484C34.5485 20.7578 34.5485 21.7422 35.1664 22.3516L36.1128 23.3047C35.6513 23.5234 35.1664 23.8438 34.6658 24.0703L34.3842 24.1953C33.5943 24.5469 33.2345 25.4688 33.5865 26.2578C33.9384 27.0469 34.8614 27.4062 35.6513 27.0547L35.9407 26.9297C36.8793 26.5078 37.7709 26 38.5922 25.4141C38.8581 25.6484 39.2726 25.8672 39.6168 26.0781L41.095 26.9609C41.838 27.4062 42.8001 27.1719 43.2459 26.4297C43.6839 25.6875 43.4492 24.7266 42.7062 24.2891L41.228 23.3984C41.1576 23.2891 41.0872 23.3125 41.0168 23.2734C42.3621 21.8047 43.4258 20.0078 44.1219 18.1641L44.247 17.8125H44.4035C45.2638 17.8125 45.9677 17.1094 45.9677 16.25C45.9677 15.3203 45.2638 14.6875 44.4035 14.6875H39.7106V14.375ZM13.1179 12.8125C13.7358 12.8125 14.2989 13.1797 14.5492 13.7422L19.5549 24.9922C19.9068 25.7109 19.5471 26.7031 18.7571 27.0547C17.9671 27.4062 17.0442 27.0469 16.6922 26.2578L15.9961 24.6172H10.2396L9.54349 26.2578C9.19153 27.0469 8.26626 27.4062 7.47708 27.0547C6.68711 26.7031 6.33202 25.7109 6.68242 24.9922L11.6866 13.7422C11.9368 13.1797 12.5 12.8125 13.1179 12.8125ZM11.5614 21.5625H14.6039L13.1179 18.2188L11.5614 21.5625Z" fill="#3F3030"/>
<path opacity="0.4" d="M13.1179 18.2188L14.6039 21.5625H11.5614L13.1179 18.2188ZM0.603638 10C0.603638 7.23828 2.84447 5 5.60933 5H25.6321V35H5.60933C2.84447 35 0.603638 32.7578 0.603638 30V10ZM11.6866 13.7422L6.68243 24.9922C6.33203 25.7109 6.68712 26.7031 7.47708 27.0547C8.26626 27.4062 9.19153 27.0469 9.5435 26.2578L10.2396 24.6172H15.9961L16.6923 26.2578C17.0442 27.0469 17.9671 27.4062 18.7571 27.0547C19.5471 26.7031 19.9068 25.7109 19.5549 24.9922L14.5492 13.7422C14.2989 13.1797 13.7358 12.8125 13.1179 12.8125C12.5 12.8125 11.9368 13.1797 11.6866 13.7422Z" fill="#3F3030"/>
</g>
<defs>
<clipPath id="clip0_1_406">
<rect width="50.0569" height="40" fill="white" transform="translate(0.603638)"/>
</clipPath>
</defs>
</svg>
