<svg width="38" height="26" viewBox="0 0 38 26" fill="none" xmlns="http://www.w3.org/2000/svg">
<path d="M0.927418 25.9895C0.982673 25.7789 1.02108 25.6433 1.02145 25.6423C1.22296 24.9255 1.47507 24.2247 1.77578 23.5453C2.10071 22.7898 2.46519 22.0528 2.86765 21.3375C3.37803 20.4291 3.94618 19.5561 4.56843 18.7241C6.1335 16.6282 8.03738 14.8218 10.1977 13.3832C11.4997 12.5195 12.8823 11.7902 14.325 11.2058C15.9842 10.5382 17.7045 10.0422 19.4603 9.72522C22.9105 9.09216 25.983 8.18732 28.5923 7.03519C30.6796 6.11349 32.4766 5.03259 33.9336 3.82196C34.8887 3.05007 35.7321 2.14354 36.4386 1.12942C36.6874 0.778275 36.8964 0.399381 37.0617 1.44769e-06C37.0617 0.00280023 37.0613 0.00558346 37.0606 0.00829159C37.0184 0.242663 36.784 1.50301 36.3102 3.3084C35.645 5.85885 34.7952 8.35507 33.7679 10.7764C32.3818 13.9965 30.7785 16.6695 29.0032 18.7191C28.0243 19.8693 26.8971 20.8778 25.6525 21.7167C24.4123 22.5463 23.033 23.1343 21.5842 23.4513C20.3406 23.7182 19.0826 23.9097 17.817 24.0249C15.3907 24.228 12.9499 24.1541 10.5396 23.8045C10.1417 23.7523 9.76161 23.6989 9.39377 23.6473C8.65605 23.5432 7.95933 23.4455 7.33068 23.3898C7.78334 22.7828 8.42887 22.247 9.30476 21.7514C9.96813 21.3848 10.6593 21.0735 11.3715 20.8206C12.3024 20.4885 13.2503 20.209 14.2111 19.9832C17.8191 19.1153 21.0011 17.8551 23.6685 16.2377C24.6932 15.6205 25.6693 14.9224 26.588 14.15C27.2734 13.5732 27.9158 12.945 28.5101 12.2706L28.5011 12.2559C27.3836 13.2006 25.7375 14.1484 23.6078 15.0736C20.859 16.2674 17.3163 17.4135 13.0786 18.482C11.189 18.9437 9.34985 19.5997 7.58916 20.4401C6.19424 21.109 4.88344 21.9481 3.68531 22.9391C2.62985 23.8175 1.70133 24.8445 0.927418 25.9895Z" fill="#AF9585"/>
</svg>
