<svg width="45" height="45" viewBox="0 0 45 45" fill="none" xmlns="http://www.w3.org/2000/svg">
<path d="M19.15 20.4875C19.8887 20.4875 20.4875 19.8887 20.4875 19.15C20.4875 18.4113 19.8887 17.8125 19.15 17.8125C18.4113 17.8125 17.8125 18.4113 17.8125 19.15C17.8125 19.8887 18.4113 20.4875 19.15 20.4875Z" fill="#3F3030"/>
<path d="M25.7999 27.1374C26.5386 27.1374 27.1374 26.5386 27.1374 25.7999C27.1374 25.0612 26.5386 24.4624 25.7999 24.4624C25.0612 24.4624 24.4624 25.0612 24.4624 25.7999C24.4624 26.5386 25.0612 27.1374 25.7999 27.1374Z" fill="#3F3030"/>
<path d="M42.2749 21.7625L38.4124 15.9125L37 9.03745C36.9584 8.77723 36.8358 8.53679 36.6494 8.35046C36.4631 8.16414 36.2227 8.04146 35.9625 7.99995L29.0875 6.58745L23.2374 2.72495C23.0193 2.57878 22.7626 2.50073 22.5 2.50073C22.2373 2.50073 21.9806 2.57878 21.7625 2.72495L15.9125 6.58745L9.03745 7.99995C8.77723 8.04146 8.53679 8.16414 8.35046 8.35046C8.16414 8.53679 8.04146 8.77723 7.99995 9.03745L6.58745 15.9125L2.72495 21.7625C2.57878 21.9806 2.50073 22.2373 2.50073 22.5C2.50073 22.7626 2.57878 23.0193 2.72495 23.2374L6.58745 29.0875L7.99995 35.9625C8.04146 36.2227 8.16414 36.4631 8.35046 36.6494C8.53679 36.8358 8.77723 36.9584 9.03745 37L15.9125 38.4124L21.7625 42.2749C21.9806 42.4211 22.2373 42.4992 22.5 42.4992C22.7626 42.4992 23.0193 42.4211 23.2374 42.2749L29.0875 38.4124L35.9625 37C36.2227 36.9584 36.4631 36.8358 36.6494 36.6494C36.8358 36.4631 36.9584 36.2227 37 35.9625L38.4124 29.0875L42.2749 23.2374C42.4211 23.0193 42.4992 22.7626 42.4992 22.5C42.4992 22.2373 42.4211 21.9806 42.2749 21.7625ZM36.0249 27.8375C35.9276 27.9764 35.8595 28.1338 35.825 28.2999L34.575 34.5499L28.325 35.7999C28.1588 35.8345 28.0014 35.9026 27.8625 36L22.5 39.575L17.1625 36.0499C17.0235 35.9526 16.8661 35.8845 16.7 35.85L10.45 34.6L9.19995 28.35C9.16537 28.1838 9.09732 28.0264 8.99995 27.8874L5.42495 22.5L8.94995 17.1625C9.04732 17.0235 9.11537 16.8661 9.14995 16.7L10.4 10.45L16.65 9.19995C16.8161 9.16537 16.9735 9.09732 17.1125 8.99995L22.5 5.43745L27.8375 8.94995C27.9764 9.04732 28.1338 9.11537 28.2999 9.14995L34.5499 10.4L35.7999 16.65C35.8345 16.8161 35.9026 16.9735 36 17.1125L39.575 22.5L36.0249 27.8375Z" fill="#3F3030"/>
<path d="M26.1125 18.8874C25.8603 18.6408 25.5215 18.5027 25.1687 18.5027C24.816 18.5027 24.4772 18.6408 24.225 18.8874L18.8875 24.2249C18.6635 24.4802 18.5449 24.8111 18.556 25.1506C18.5671 25.4901 18.7069 25.8126 18.947 26.0528C19.1872 26.293 19.5098 26.4328 19.8492 26.4439C20.1887 26.4549 20.5197 26.3364 20.775 26.1124L26.1125 20.7749C26.3591 20.5226 26.4972 20.1839 26.4972 19.8311C26.4972 19.4784 26.3591 19.1396 26.1125 18.8874Z" fill="#3F3030"/>
<path d="M22.5 10.5C20.1266 10.5 17.8066 11.2038 15.8332 12.5224C13.8598 13.8409 12.3217 15.7151 11.4135 17.9078C10.5052 20.1005 10.2676 22.5133 10.7306 24.8411C11.1936 27.1689 12.3365 29.3071 14.0147 30.9853C15.693 32.6635 17.8311 33.8064 20.1589 34.2694C22.4867 34.7324 24.8995 34.4948 27.0922 33.5866C29.2849 32.6783 31.1591 31.1402 32.4776 29.1668C33.7962 27.1935 34.5 24.8734 34.5 22.5C34.4934 19.3194 33.227 16.271 30.978 14.022C28.729 11.773 25.6806 10.5066 22.5 10.5ZM22.5 31.8375C20.6532 31.8375 18.8479 31.2899 17.3124 30.2638C15.7768 29.2378 14.58 27.7795 13.8733 26.0733C13.1665 24.3671 12.9816 22.4896 13.3419 20.6783C13.7022 18.867 14.5915 17.2033 15.8974 15.8974C17.2033 14.5915 18.8671 13.7022 20.6783 13.3419C22.4896 12.9816 24.3671 13.1665 26.0733 13.8733C27.7795 14.58 29.2378 15.7768 30.2639 17.3124C31.2899 18.8479 31.8375 20.6532 31.8375 22.5C31.8342 24.9754 30.8494 27.3486 29.099 29.099C27.3486 30.8494 24.9754 31.8342 22.5 31.8375Z" fill="#3F3030"/>
</svg>
