<svg width="20" height="20" viewBox="0 0 20 20" fill="none" xmlns="http://www.w3.org/2000/svg">
<path d="M18.6858 2.79909C18.6682 2.6729 18.6141 2.55459 18.5302 2.45871C18.4463 2.36283 18.3363 2.29355 18.2135 2.25939L10.1752 0.0239225C10.0606 -0.00797415 9.93944 -0.00797415 9.82485 0.0239225L1.7865 2.25939C1.66375 2.29353 1.55365 2.3628 1.46975 2.45869C1.38585 2.55457 1.3318 2.67289 1.31426 2.79909C1.26763 3.13434 0.204017 11.0556 2.93212 14.9961C5.657 18.932 9.67679 19.9406 9.84655 19.9817C9.9474 20.0061 10.0526 20.0061 10.1535 19.9817C10.3233 19.9406 14.3431 18.932 17.0679 14.9961C19.796 11.0556 18.7324 3.13442 18.6858 2.79909ZM15.1837 7.42357L9.70075 12.9065C9.57317 13.0341 9.40585 13.098 9.23862 13.098C9.07138 13.098 8.90406 13.0342 8.77648 12.9065L5.38641 9.51647C5.3257 9.4558 5.27753 9.38375 5.24467 9.30446C5.21181 9.22516 5.1949 9.14017 5.1949 9.05434C5.1949 8.9685 5.21181 8.88351 5.24467 8.80421C5.27753 8.72492 5.3257 8.65287 5.38641 8.5922L6.05953 7.91909C6.1821 7.79653 6.34833 7.72768 6.52167 7.72768C6.695 7.72768 6.86123 7.79653 6.9838 7.91909L9.23862 10.1739L13.5863 5.8261C13.647 5.76539 13.719 5.71722 13.7983 5.68436C13.8776 5.6515 13.9626 5.63459 14.0485 5.63459C14.1343 5.63459 14.2193 5.6515 14.2986 5.68436C14.3779 5.71722 14.4499 5.76539 14.5106 5.8261L15.1837 6.49922C15.2444 6.55991 15.2926 6.63196 15.3254 6.71126C15.3583 6.79057 15.3752 6.87556 15.3752 6.9614C15.3752 7.04723 15.3583 7.13223 15.3254 7.21153C15.2926 7.29083 15.2444 7.36288 15.1837 7.42357Z" fill="#3F3030"/>
</svg>
