<svg width="20" height="20" viewBox="0 0 20 20" fill="none" xmlns="http://www.w3.org/2000/svg">
<g clip-path="url(#clip0_1_488)">
<path d="M19.5901 0.0027221C15.686 -0.0672779 11.2335 1.97356 8.41514 5.13939C5.69236 5.19651 3.09657 6.30187 1.16848 8.22522C1.11321 8.27971 1.07426 8.34855 1.05601 8.42398C1.03776 8.49942 1.04094 8.57845 1.0652 8.65217C1.08946 8.7259 1.13382 8.79138 1.1933 8.84124C1.25277 8.8911 1.32499 8.92337 1.40181 8.93439L4.61348 9.39439L4.21681 9.83856C4.14588 9.91803 4.10809 10.0216 4.11119 10.1281C4.11429 10.2346 4.15805 10.3358 4.23348 10.4111L9.58931 15.7669C9.66453 15.8424 9.76587 15.8861 9.8724 15.8891C9.97894 15.892 10.0825 15.8539 10.1618 15.7827L10.606 15.3861L11.066 18.5977C11.0885 18.7544 11.2118 18.8694 11.361 18.9194C11.3995 18.9317 11.4397 18.9379 11.4801 18.9377C11.6009 18.936 11.7163 18.888 11.8026 18.8036C13.7068 16.8994 14.811 14.2769 14.8618 11.5836C18.031 8.75939 20.0885 4.30856 19.9976 0.409389C19.9947 0.302323 19.9508 0.200468 19.875 0.12481C19.7992 0.0491523 19.6972 0.00545508 19.5901 0.0027221ZM15.7501 7.19606C15.3443 7.60189 14.811 7.80522 14.2768 7.80522C13.7426 7.80522 13.2093 7.60189 12.8035 7.19606C12.4137 6.8048 12.1948 6.27501 12.1948 5.72272C12.1948 5.17043 12.4137 4.64065 12.8035 4.24939C13.616 3.43689 14.9376 3.43689 15.7501 4.24939C16.5626 5.06189 16.5626 6.38439 15.7501 7.19606ZM2.27014 14.0877C1.37848 14.9794 0.154312 19.0077 0.0176449 19.4636C-0.00349355 19.5356 -0.00484187 19.612 0.0137415 19.6848C0.0323248 19.7576 0.0701544 19.824 0.123259 19.8771C0.176364 19.9302 0.242786 19.968 0.315553 19.9866C0.388319 20.0052 0.464746 20.0039 0.536812 19.9827C0.992645 19.8461 5.02098 18.6219 5.91264 17.7302C6.39501 17.2468 6.66592 16.5919 6.66592 15.909C6.66592 15.2261 6.39501 14.5711 5.91264 14.0877C5.42916 13.6056 4.77421 13.3348 4.09139 13.3348C3.40858 13.3348 2.75363 13.6056 2.27014 14.0877Z" fill="#3F3030"/>
</g>
<defs>
<clipPath id="clip0_1_488">
<rect width="20" height="20" fill="white"/>
</clipPath>
</defs>
</svg>
