<svg width="22" height="22" viewBox="0 0 22 22" fill="none" xmlns="http://www.w3.org/2000/svg">
<g clip-path="url(#clip0_1_491)">
<path d="M3.56563 22L7.19271 18.1552L6.86469 18.1001C5.46696 17.8656 4.24187 16.975 3.58755 15.7178L3.29652 15.1586C3.27038 15.1088 3.24294 15.0596 3.21423 15.0112L0 18.2255L2.61439 19.2947L3.56563 22ZM18.4344 22L14.8073 18.1552L15.1353 18.1001C16.533 17.8656 17.7581 16.975 18.4125 15.7178L18.7035 15.1586C18.7296 15.1088 18.7571 15.0596 18.7858 15.0112L22 18.2255L19.3856 19.2947L18.4344 22ZM11 7.34741L10.3328 8.10946L9.40182 8.5086L9.92041 9.37863L10.0123 10.3873L11 10.163L11.9877 10.3873L12.0796 9.37863L12.5982 8.5086L11.6672 8.10946L11 7.34741Z" fill="#3F3030"/>
<path d="M17.2544 15.139L17.5504 14.5732C17.7566 14.1786 18.0199 13.8165 18.3315 13.4985L18.78 13.0411C19.4879 12.3189 19.8225 11.2904 19.675 10.2899L19.5816 9.65615C19.5167 9.21567 19.5169 8.76802 19.5823 8.3276L19.6759 7.69605C19.8245 6.69449 19.49 5.66483 18.7812 4.94175L18.3366 4.48822C18.0228 4.16814 17.7581 3.80332 17.5512 3.40566L17.2602 2.84651C16.7915 1.94614 15.9141 1.30831 14.9131 1.1403L14.2929 1.03623C13.8493 0.961843 13.4192 0.821926 13.0168 0.62107L12.454 0.340313C11.9995 0.113438 11.5005 0 11.0018 0C10.504 0 10.0063 0.112922 9.55234 0.338852L8.98799 0.619738C8.58672 0.819533 8.15806 0.958774 7.71598 1.03293L7.08958 1.13803C6.09103 1.30565 5.21477 1.94137 4.74555 2.8386L4.44963 3.40441C4.24335 3.79899 3.98014 4.16107 3.66846 4.47902L3.21999 4.93647C2.51208 5.65868 2.17748 6.68714 2.32495 7.68763L2.41837 8.32141C2.48334 8.7619 2.48312 9.20955 2.41772 9.64997L2.32405 10.2815C2.17546 11.2831 2.50998 12.3127 3.21879 13.0358L3.66339 13.4894C3.97722 13.8094 4.24191 14.1742 4.44881 14.5719L4.73984 15.1311C5.20846 16.0314 6.08588 16.6693 7.08688 16.8373L7.70713 16.9413C8.1507 17.0157 8.58075 17.1556 8.98317 17.3565L9.54598 17.6373C10.4542 18.0904 11.5389 18.0909 12.4476 17.6387L13.012 17.3578C13.4132 17.158 13.8419 17.0188 14.284 16.9446L14.9104 16.8395C15.909 16.6719 16.7852 16.0362 17.2544 15.139ZM11 15.471C7.42569 15.471 4.51782 12.5631 4.51782 8.98881C4.51782 5.41454 7.42569 2.50658 11 2.50658C14.5743 2.50658 17.4822 5.41449 17.4822 8.98876C17.4822 12.563 14.5743 15.471 11 15.471Z" fill="#3F3030"/>
<path d="M11 3.79565C8.13648 3.79565 5.80688 6.12529 5.80688 8.98877C5.80688 11.8523 8.13648 14.1819 11 14.1819C13.8635 14.1819 16.1931 11.8523 16.1931 8.98881C16.1931 6.12533 13.8635 3.79565 11 3.79565ZM13.3368 9.78713L13.138 11.9705L11 11.4849L8.86205 11.9705L8.66319 9.78713L7.54072 7.90385L9.55574 7.04001L11 5.39057L12.4442 7.04005L14.4592 7.9039L13.3368 9.78713Z" fill="#3F3030"/>
</g>
<defs>
<clipPath id="clip0_1_491">
<rect width="22" height="22" fill="white"/>
</clipPath>
</defs>
</svg>
