<svg width="51" height="40" viewBox="0 0 51 40" fill="none" xmlns="http://www.w3.org/2000/svg">
<g clip-path="url(#clip0_1_403)">
<path d="M5.85999 3.75C5.85999 1.67891 7.5408 0 9.61426 0H29.637C31.7097 0 33.3913 1.67891 33.3913 3.75V7.5H37.3568C38.6864 7.5 39.8909 8.02344 40.8998 8.96094L46.9458 15C47.8844 15.9375 48.4084 17.2109 48.4084 18.5391V27.5C49.7928 27.5 50.9112 28.6172 50.9112 30C50.9112 31.3828 49.7928 32.5 48.4084 32.5H45.8195C45.2094 28.2578 41.5568 25 37.1456 25C32.7343 25 29.0817 28.2578 28.4716 32.5H23.2939C22.6838 28.2578 19.0312 25 14.62 25C10.8579 25 7.64639 27.375 6.4067 30.6328C6.06021 30.1328 5.85999 29.4609 5.85999 28.75V20H17.1228C17.8111 20 18.3742 19.4375 18.3742 18.75C18.3742 18.0625 17.8111 17.5 17.1228 17.5H5.85999V15H19.6256C20.3139 15 20.8771 14.4375 20.8771 13.75C20.8771 13.0625 20.3139 12.5 19.6256 12.5H5.85999V10H22.1285C22.8168 10 23.3799 9.4375 23.3799 8.75C23.3799 8.0625 22.8168 7.5 22.1285 7.5H5.85999V3.75ZM43.4027 20V18.5391L37.3568 12.5H33.3913V20H43.4027Z" fill="#3F3030"/>
<path opacity="0.4" d="M22.1285 10H2.10567C1.41457 10 0.854248 9.4375 0.854248 8.75C0.854248 8.0625 1.41457 7.5 2.10567 7.5H22.1285C22.8167 7.5 23.3799 8.0625 23.3799 8.75C23.3799 9.4375 22.8167 10 22.1285 10ZM19.6256 12.5C20.3139 12.5 20.877 13.0625 20.877 13.75C20.877 14.4375 20.3139 15 19.6256 15H4.60852C3.91711 15 3.3571 14.4375 3.3571 13.75C3.3571 13.0625 3.91711 12.5 4.60852 12.5H19.6256ZM17.1228 17.5C17.811 17.5 18.3742 18.0625 18.3742 18.75C18.3742 19.4375 17.811 20 17.1228 20H2.10567C1.41457 20 0.854248 19.4375 0.854248 18.75C0.854248 18.0625 1.41457 17.5 2.10567 17.5H17.1228ZM20.877 33.75C20.877 37.2031 18.077 40 14.6199 40C11.1629 40 8.36279 37.2031 8.36279 33.75C8.36279 30.2969 11.1629 27.5 14.6199 27.5C18.077 27.5 20.877 30.2969 20.877 33.75ZM43.4027 33.75C43.4027 37.2031 40.6026 40 37.1455 40C33.6885 40 30.8884 37.2031 30.8884 33.75C30.8884 30.2969 33.6885 27.5 37.1455 27.5C40.6026 27.5 43.4027 30.2969 43.4027 33.75Z" fill="#3F3030"/>
</g>
<defs>
<clipPath id="clip0_1_403">
<rect width="50.0569" height="40" fill="white" transform="translate(0.854248)"/>
</clipPath>
</defs>
</svg>
