<svg width="20" height="20" viewBox="0 0 20 20" fill="none" xmlns="http://www.w3.org/2000/svg">
<path d="M12.0529 7.93102C10.2656 6.14378 7.36328 6.1438 5.57603 7.93104L2.92646 10.5806C1.1391 12.368 1.1391 15.2701 2.92646 17.0575L2.92646 17.0575C4.71382 18.8449 7.61596 18.8449 9.40335 17.0575C9.72839 16.7325 9.72839 16.2047 9.40336 15.8797C9.07833 15.5547 8.55057 15.5547 8.22553 15.8797C7.08822 17.017 5.24159 17.017 4.1043 15.8797C2.967 14.7424 2.967 12.8958 4.10429 11.7585L6.75386 9.10888C7.89108 7.97166 9.73782 7.97168 10.8751 9.1089C11.2002 9.43392 11.7279 9.4339 12.0529 9.10886C12.378 8.78382 12.3779 8.25605 12.0529 7.93102L12.0529 7.93102ZM7.93117 12.0528C9.71853 13.8402 12.6207 13.8402 14.4081 12.0528L17.0576 9.40335C18.8449 7.61596 18.8449 4.71382 17.0576 2.92646L17.0576 2.92646C15.2702 1.13909 12.368 1.1391 10.5807 2.92646C10.2556 3.25149 10.2556 3.77926 10.5807 4.10429C10.9057 4.42933 11.4335 4.42933 11.7585 4.10429C12.8958 2.967 14.7424 2.967 15.8797 4.1043C17.017 5.24159 17.017 7.08822 15.8797 8.22553L13.2302 10.875C12.0929 12.0123 10.2463 12.0123 9.10902 10.875C8.78399 10.55 8.25622 10.55 7.93119 10.875C7.60616 11.2 7.60616 11.7278 7.93119 12.0528H7.93117Z" fill="#3F3030"/>
</svg>
