<svg width="12" height="11" viewBox="0 0 12 11" fill="none" xmlns="http://www.w3.org/2000/svg">
<path d="M11.6813 5.14545C11.6813 5.23272 11.6655 5.31454 11.634 5.3909C11.603 5.46727 11.55 5.53818 11.475 5.60363L6.525 9.92363C6.375 10.0545 6.19675 10.12 5.99025 10.12C5.78425 10.12 5.60625 10.0545 5.45625 9.92363C5.30625 9.79272 5.23125 9.63999 5.23125 9.46545C5.23125 9.2909 5.30625 9.13818 5.45625 9.00727L9.13125 5.79999L0.73125 5.79999C0.51875 5.79999 0.34375 5.73716 0.20625 5.61149C0.0687498 5.48625 -2.39866e-07 5.3309 -2.49155e-07 5.14545C-2.58444e-07 4.95999 0.0717499 4.80443 0.21525 4.67876C0.35925 4.55352 0.5375 4.4909 0.75 4.4909L9.13125 4.4909L5.45625 1.28363C5.30625 1.15272 5.23125 0.999994 5.23125 0.825449C5.23125 0.650904 5.30625 0.498176 5.45625 0.367267C5.60625 0.236358 5.78425 0.170903 5.99025 0.170903C6.19675 0.170903 6.375 0.236358 6.525 0.367267L11.475 4.68727C11.55 4.75272 11.603 4.82363 11.634 4.89999C11.6655 4.97636 11.6813 5.05818 11.6813 5.14545Z" fill="#3F3030"/>
</svg>
